<svg width="410" height="100" xmlns="http://www.w3.org/2000/svg"><defs><linearGradient x1="120.462%" y1="195.411%" x2="-6.214%" y2="-25.532%" id="a"><stop stop-color="#71A4FF" offset="0%"/><stop stop-color="#41D6C3" offset="100%"/></linearGradient></defs><path d="M292.996 42.171c-.046-4.78-.287-9.276-.728-13.486-.443-3.771-1.17-7.325-2.183-10.659-1.015-3.333-2.183-6.25-3.506-8.75s-2.8-4.474-4.432-5.922c-1.634-1.445-3.287-2.17-4.962-2.17-1.236.087-2.58.242-4.036.46-1.454.22-2.777.615-3.968 1.185-1.19.57-2.14 1.36-2.845 2.368-.708 1.01-.926 2.304-.662 3.882.088 1.842.53 3.64 1.324 5.395a829.179 829.179 0 002.646 5.79c.969 2.105 1.918 4.495 2.844 7.17.927 2.677 1.608 5.856 2.05 9.54.53 5.79.53 11.404 0 16.842-.528 5.44-1.454 10.286-2.777 14.539-1.324 4.256-2.977 7.656-4.961 10.197-1.986 2.547-4.168 3.816-6.55 3.816-1.502 0-2.955-.657-4.366-1.973-1.413-1.315-2.295-2.718-2.646-4.21-.618-3.948-.596-7.676.067-11.185.66-3.507 1.74-6.621 3.241-9.342 1.498-2.718 3.35-4.978 5.556-6.776 2.204-1.797 4.542-3.047 7.012-3.75 1.499-.526 2.073-1.712 1.721-3.553-.179-1.139-.75-1.995-1.721-2.566-.97-.57-2.161-.855-3.572-.855-4.147 0-8.159.855-12.039 2.565-3.882 1.71-7.257 4.277-10.122 7.699-2.866 3.42-4.94 7.72-6.218 12.894-.87 3.518-1.185 7.45-.976 11.776-2.014 2.303-3.92 4.27-5.705 5.855-2.073 1.842-4.08 2.764-6.02 2.764-1.851 0-2.823-.744-2.91-2.236a67.425 67.425 0 011.587-8.027c2.293-9.297 3.947-16.272 4.962-20.922 1.012-4.648 1.565-7.543 1.654-8.684-.353-1.052-1.016-2.016-1.985-2.895a14.677 14.677 0 00-3.308-2.236 19.551 19.551 0 00-3.968-1.448c-1.413-.35-2.692-.526-3.837-.526-.708 0-1.456.177-2.25.526-.793.352-1.28.79-1.454 1.316l-1.192 3.552a24.49 24.49 0 00-2.316-.723 10.75 10.75 0 00-2.712-.329c-3.968 0-8.093 1.295-12.37 3.881-4.28 2.59-8.137 5.901-11.576 9.935-3.44 4.036-6.132 8.487-8.07 13.356-1.09 2.735-1.748 5.42-2.004 8.06-.454.524-.92 1.055-1.424 1.61a29.507 29.507 0 01-4.035 3.684c-1.41.966-2.735 1.559-3.97 1.776-1.235.222-2.337.33-3.305.33-1.324 0-2.515-.439-3.575-1.316-1.057-.875-2.05-2.04-2.977-3.487a37.968 37.968 0 01-2.58-4.802 98.605 98.605 0 01-2.248-5.395c6.967-2.28 12.192-5.044 15.677-8.29 3.483-3.245 4.872-6.974 4.17-11.185-.18-1.138-.728-2.257-1.655-3.354-.927-1.096-2.227-1.951-3.904-2.566-1.851-.526-3.836-.658-5.953-.395-2.38.263-4.3 1.163-5.755 2.698a52.644 52.644 0 00-4.167 5 33.037 33.037 0 01-4.367 4.868c-1.588 1.447-3.66 2.26-6.219 2.433a130.844 130.844 0 012.978-10.854 170.655 170.655 0 013.838-10.79c1.365-3.464 2.798-6.6 4.297-9.407 1.5-2.807 2.912-5.043 4.235-6.711 1.675-1.93 2.381-3.903 2.118-5.921-.266-1.403-.927-2.718-1.984-3.947-1.06-1.228-2.34-2.259-3.838-3.093a16.97 16.97 0 00-4.764-1.776c-1.677-.35-3.22-.35-4.63 0-2.295.525-4.367 2.085-6.218 4.672-1.853 2.588-3.529 5.768-5.028 9.538-1.501 3.773-2.823 7.96-3.97 12.566a389.206 389.206 0 00-3.174 13.817 444.474 444.474 0 00-2.58 13.157 228.622 228.622 0 01-1.767 8.887c-1.114.013-2 .076-2.626.193-.706.13-1.72.197-3.043.197-1.323 0-2.447-.044-3.373-.132a20.806 20.806 0 01-2.581-.394 10.34 10.34 0 01-2.381-.855 49.765 49.765 0 01-2.778-1.515c2.117-5.612 3.483-10.898 4.101-15.854.616-4.955.53-10.022-.264-15.198-.795-4.912-1.986-9.21-3.573-12.895-1.587-3.684-3.486-6.775-5.689-9.275-2.206-2.501-4.61-4.475-7.211-5.921-2.602-1.448-5.314-2.435-8.137-2.96-5.381-1.227-9.505-1.03-12.37.592-2.868 1.623-4.875 4.012-6.02 7.17-1.147 3.156-1.654 6.732-1.521 10.723.131 3.993.462 7.742.992 11.25.97 6.23 2.845 12.303 5.623 18.224a53.59 53.59 0 0011.18 15.723c-1.502 2.896-3.33 5.704-5.49 8.421a44.89 44.89 0 01-7.212 7.237 35.85 35.85 0 01-8.534 5.067c-3.043 1.272-6.152 1.907-9.327 1.907a27.06 27.06 0 01-8.202-1.25 20.36 20.36 0 01-7.145-3.947c-2.117-1.798-3.95-4.057-5.491-6.776-1.544-2.718-2.58-5.92-3.11-9.606-.707-4.21-.816-8.507-.33-12.894a59.434 59.434 0 012.845-12.764 59.74 59.74 0 015.424-11.644c1.91-3.153 4.033-5.998 6.375-8.527 0 0 4.433-6.226 16.17-10.441C63.98 5.7 56.872-.072 54.171 0c-2.697.072-4.929-.527-14.448 3.169-4.079 1.664-8.084 3.796-11.945 6.568-4.28 3.072-8.27 6.732-11.974 10.985A68.79 68.79 0 006.41 34.605c-2.56 5-4.388 10.309-5.49 15.92C-.185 56.143-.294 61.844.589 67.633c.793 5.088 2.468 9.627 5.027 13.619 2.558 3.992 5.71 7.368 9.46 10.13 3.749 2.763 7.917 4.891 12.503 6.382A45.097 45.097 0 0041.603 100c4.322 0 8.753-.506 13.297-1.512a65.866 65.866 0 0013.364-4.541c4.365-2.016 8.576-4.606 12.634-7.763C84.954 83.027 88.615 79.3 91.88 75c2.292 1.23 5.115 2.152 8.467 2.763 3.351.616 6.57.922 9.659.922 1.042 0 2.133-.08 3.249-.2-.391 2.241-.395 4.459.019 6.646.088 1.053.462 2.173 1.123 3.357a17.35 17.35 0 002.383 3.288 13.506 13.506 0 003.043 2.501c1.1.658 2.137.987 3.109.987 1.852 0 3.285-.573 4.3-1.712 1.012-1.139 1.829-2.499 2.447-4.077a20.887 20.887 0 001.257-4.87c.219-1.664.463-3.026.728-4.08.351-1.664.705-3.373 1.058-5.13a38.888 38.888 0 011.456-5.264c1.058 2.81 2.05 5.637 2.976 8.488.926 2.85 2.072 5.461 3.44 7.829 1.367 2.368 3.11 4.321 5.227 5.856 2.115 1.533 4.938 2.344 8.468 2.432 3.175 0 6.437-.877 9.789-2.63a44.64 44.64 0 009.197-6.382c.277-.25.528-.504.796-.757 1.048 2.724 2.6 4.871 4.68 6.414 3.13 2.323 6.857 3.488 11.18 3.488 2.557-.178 5.335-1.053 8.336-2.632 2.996-1.578 5.556-4.034 7.673-7.368.705 3.598 2.138 6.054 4.3 7.368 2.16 1.315 4.961 1.974 8.401 1.974 2.557 0 5.425-.878 8.6-2.632a44.39 44.39 0 008.798-6.382 49.96 49.96 0 001.878-1.84c.91 2.315 2.24 4.314 4.008 5.984 2.69 2.547 5.974 4.166 9.857 4.87 1.234.176 2.49.283 3.771.328a21.36 21.36 0 003.771-.198c5.38-.44 10.01-1.795 13.892-4.077 3.88-2.28 7.098-5.152 9.659-8.619 2.557-3.464 4.585-7.368 6.085-11.711a69.02 69.02 0 003.176-13.552c.616-4.691.904-9.428.86-14.21m-84.079 16.183a490.42 490.42 0 00-2.184 10.067 809.69 809.69 0 00-1.256 4.538c-.397 1.448-.926 2.72-1.587 3.816a7.582 7.582 0 01-2.647 2.632c-1.104.659-2.58 1.032-4.432 1.118-1.323 0-2.381-.329-3.175-.987-.794-.656-1.324-1.862-1.589-3.618-.264-2.105-.022-4.649.728-7.631.749-2.98 1.853-5.922 3.308-8.816 1.455-2.895 3.219-5.438 5.292-7.632 2.072-2.191 4.3-3.552 6.681-4.079 1.588-.175 2.601.045 3.044.659a698.11 698.11 0 01-2.183 9.933M84.338 40.263c-.353 3.861-1.058 7.02-2.117 9.473-.971-.612-1.918-1.664-2.844-3.157-.926-1.49-1.786-3.201-2.58-5.132a56.007 56.007 0 01-2.117-6.184 60.49 60.49 0 01-1.456-6.448 44.118 44.118 0 01-.33-4.078c-.045-1.316.02-2.5.199-3.554.175-1.052.505-1.884.992-2.498.483-.614 1.168-.922 2.051-.922 1.234 0 2.291.308 3.175.922.88.614 1.63 1.426 2.25 2.433.615 1.01 1.124 2.172 1.521 3.487.397 1.316.681 2.677.86 4.08.615 3.86.748 7.72.396 11.578m325.575 27.802c-.088-.53-.482-1.148-1.182-1.858-.701-.707-1.4-1.062-2.1-1.062-.702 0-1.314.445-1.838 1.328A30.347 30.347 0 01400 72.975a37.155 37.155 0 01-6.105 5.107 30.477 30.477 0 01-6.893 3.45c-2.41.843-4.792 1.261-7.157 1.261-3.326-.176-5.93-1.237-7.812-3.184-1.883-1.944-3.172-4.644-3.872-8.094-.527-3.095-.548-6.104-.066-9.021.479-2.92 1.313-5.486 2.494-7.696 1.183-2.21 2.647-3.983 4.399-5.308 1.75-1.327 3.676-1.99 5.777-1.99 1.662 0 2.932.753 3.807 2.256l-4.595 4.246c-.877.707-1.489 1.393-1.837 2.056a5.898 5.898 0 00-.658 2.055c.175 1.063.7 1.99 1.576 2.786.874.799 1.905 1.46 3.086 1.993a20.55 20.55 0 003.742 1.258c1.313.312 2.45.465 3.414.465 1.313 0 2.56-.44 3.74-1.325 1.184-.885 2.21-2.1 3.087-3.65.874-1.546 1.51-3.36 1.904-5.44.394-2.078.414-4.312.066-6.7-.352-1.592-.942-2.94-1.773-4.047a12.43 12.43 0 00-2.89-2.786 11.76 11.76 0 00-3.609-1.66 31.417 31.417 0 00-3.94-.795 21.45 21.45 0 00-3.675-.2 22.755 22.755 0 00-3.152.332c-4.814.443-9.082 1.836-12.802 4.18-3.72 2.345-6.807 5.22-9.255 8.625a33.264 33.264 0 00-5.252 11.21 31.253 31.253 0 00-.865 4.933c-1.222 1.31-2.744 1.967-4.57 1.967-1.314 0-2.495-.484-3.545-1.46 1.05-2.388 1.684-5.195 1.904-8.424.217-3.227-.09-6.28-.92-9.156-.832-2.873-2.277-5.328-4.333-7.363-2.058-2.034-4.924-3.052-8.6-3.052-1.227 0-2.625.222-4.202.664-3.726.952-5.122 6.435-4.201 10.216.174 1.24.48 2.5.92 3.78a24.333 24.333 0 001.574 3.65 27.421 27.421 0 001.97 3.185c1.137 1.758 2.302 3.575 3.527 5.339-.592 1.53-1.494 3.245-2.326 4.9-1.047 2.086-1.617 3.008-2.71 4.82-1.096 1.814-2.408 3.317-3.94 4.512-1.531 1.194-3.216 1.837-5.054 1.923-1.051 0-1.993-.285-2.823-.863a6.881 6.881 0 01-2.036-2.189 14.129 14.129 0 01-1.312-2.985 22.977 22.977 0 01-.788-3.383c-2.614-21.015 13.086-26.88 9.239-29.38-8.171-4.371-20.626 6.367-25.257 20.093-1.4 4.6-1.751 9.153-1.051 13.665a19.044 19.044 0 002.299 6.701 20.505 20.505 0 004.462 5.44c1.794 1.549 3.83 2.786 6.107 3.715 2.275.93 4.726 1.393 7.352 1.393 3.063 0 5.995-.577 8.797-1.725a33.638 33.638 0 007.68-4.378 34.98 34.98 0 006.172-6.037c1.793-2.256 3.303-4.445 4.53-6.569 1.136.71 2.297 1.194 3.479 1.46 1.181.266 2.34.398 3.48.398 1.723 0 3.372-.373 4.956-1.082 1.265 5.375 3.583 9.526 6.976 12.427 3.984 3.406 9.694 5.108 17.135 5.108 3.763 0 7.527-.796 11.292-2.388 3.763-1.593 7.2-3.583 10.307-5.97 3.107-2.389 5.755-4.954 7.943-7.697 2.188-2.74 3.632-5.261 4.333-7.561.175-.533.284-1.04.329-1.528.043-.484.02-.949-.066-1.393m-76.284-11.087s-6.585-9.565-3.323-10.24c3.262-.673 5.844 3.123 3.323 10.24" fill="url(#a)" fill-rule="evenodd"/></svg>