<svg xmlns="http://www.w3.org/2000/svg" width="160" height="48" fill="none" viewBox="0 0 160 48">
    <path fill="#404852" d="M159.99 10.002c0-.365 0-.729-.004-1.09-.029-.794-.075-1.587-.221-2.371-.134-.794-.369-1.534-.733-2.256-.367-.709-.834-1.359-1.4-1.92-.561-.56-1.208-1.032-1.915-1.397-.729-.366-1.467-.604-2.26-.743-.779-.141-1.575-.189-2.368-.208-.362-.005-.731-.012-1.093-.015C149.57 0 149.138 0 148.711 0H11.305c-.434 0-.863 0-1.296.002-.362.003-.722.01-1.089.015-.788.019-1.586.067-2.372.208-.794.14-1.53.377-2.25.743-.71.365-1.357.834-1.918 1.398-.566.56-1.036 1.21-1.395 1.92-.37.72-.602 1.461-.74 2.255C.1 7.325.051 8.118.03 8.91c-.012.364-.012.729-.017 1.09V38.002c.005.366.007.724.017 1.093.02.793.07 1.586.213 2.37.14.793.372 1.536.74 2.255.36.705.83 1.357 1.396 1.913.56.566 1.208 1.035 1.917 1.397.722.37 1.46.604 2.25.748.787.142 1.585.187 2.373.209.367.007.727.012 1.088.012.434.002.863.002 1.297.002h137.406c.427 0 .859 0 1.285-.002.362 0 .731-.005 1.093-.012.793-.022 1.589-.067 2.368-.209.793-.144 1.531-.376 2.26-.748.707-.36 1.357-.831 1.915-1.397.563-.556 1.033-1.206 1.4-1.913.364-.719.599-1.462.733-2.255.146-.784.192-1.577.221-2.37.004-.367.004-.724.004-1.093.01-.432.01-.858.01-1.297v-25.41c-.002-.434-.002-.863-.01-1.292zm-1.025 26.7c0 .431 0 .85-.01 1.272 0 .386 0 .739-.005 1.1-.024.698-.067 1.465-.201 2.196-.122.726-.331 1.368-.64 1.977-.319.616-.726 1.172-1.203 1.642-.489.496-1.045.899-1.659 1.21-.613.312-1.241.52-1.975.652-.759.137-1.543.175-2.214.194-.348.008-.71.012-1.062.012l-1.285.003-138.695-.003c-.362 0-.715-.004-1.072-.012-.661-.019-1.447-.055-2.214-.194-.724-.131-1.366-.343-1.963-.65-.619-.313-1.172-.718-1.654-1.202-.491-.482-.894-1.033-1.208-1.654-.307-.597-.518-1.24-.642-1.963-.144-.796-.182-1.606-.197-2.222-.007-.25-.016-1.08-.016-1.08V10.001s.01-.82.016-1.06c.017-.62.053-1.428.197-2.217.127-.726.335-1.368.645-1.967.314-.621.719-1.177 1.203-1.657.489-.49 1.047-.896 1.66-1.21.61-.31 1.25-.52 1.959-.645.798-.143 1.606-.18 2.222-.194l1.069-.014h139.973l1.081.014c.606.015 1.416.05 2.2.192.714.125 1.359.338 1.98.65.606.311 1.162.716 1.648 1.203.485.481.892 1.04 1.213 1.663.305.606.513 1.246.633 1.953.137.748.18 1.515.206 2.237.002.335.002.695.002 1.054.01.444.01.868.01 1.294v25.404h-.002z"/>
    <path fill="#404852" d="M59.35 31.855h-5.552L52.44 35.57H50l5.436-13.87h2.308l5.561 13.87h-2.565l-1.39-3.715zm-4.854-1.884h4.144l-1.484-3.973c-.203-.55-.405-1.156-.604-1.82-.18.588-.374 1.187-.582 1.8l-1.474 3.993zM64.404 27.769c0-.767-.026-1.609-.077-2.529h2.22c.081.43.139.865.172 1.311.918-1.002 1.973-1.503 3.16-1.503.687 0 1.327.175 1.914.523.587.347 1.062.896 1.421 1.646.36.75.542 1.702.542 2.857 0 1.206-.206 2.236-.618 3.092-.41.856-.988 1.503-1.728 1.944-.741.441-1.597.662-2.565.662-.702 0-1.395-.118-2.078-.355v4.268l-2.365.202V27.769h.002zm6.217 5.28c.482-.647.724-1.594.724-2.838 0-1.155-.199-1.992-.6-2.512-.4-.52-.93-.779-1.593-.779-.46 0-.885.108-1.273.326-.388.218-.76.508-1.11.873v5.534c.235.115.511.206.822.273.312.067.624.1.93.1.918-.007 1.618-.33 2.1-.977zM75.268 27.769c0-.767-.026-1.609-.077-2.529h2.22c.081.43.139.865.172 1.311.918-1.002 1.973-1.503 3.16-1.503.687 0 1.327.175 1.914.523.588.347 1.062.896 1.422 1.646.36.75.541 1.702.541 2.857 0 1.206-.206 2.236-.618 3.092-.41.856-.987 1.503-1.728 1.944-.74.441-1.596.662-2.565.662-.702 0-1.395-.118-2.078-.355v4.268l-2.365.202V27.769h.002zm6.217 5.28c.482-.647.724-1.594.724-2.838 0-1.155-.199-1.992-.6-2.512-.4-.52-.929-.779-1.593-.779-.46 0-.884.108-1.273.326-.388.218-.76.508-1.11.873v5.534c.236.115.511.206.823.273.311.067.623.1.93.1.918-.007 1.618-.33 2.1-.977zM89.083 34.913c-1.021-.565-1.807-1.373-2.356-2.425-.549-1.052-.822-2.299-.822-3.734 0-1.558.316-2.881.947-3.97.632-1.088 1.493-1.905 2.58-2.449 1.089-.546 2.309-.82 3.663-.82.798 0 1.558.09 2.282.264.724.175 1.4.417 2.025.721l-.604 1.82c-1.258-.6-2.457-.9-3.6-.9-.963 0-1.807.207-2.533.62-.724.411-1.287 1.015-1.69 1.814-.403.798-.604 1.761-.604 2.89 0 .99.156 1.867.465 2.632.31.764.798 1.373 1.464 1.819.667.446 1.508.67 2.522.67.46 0 .92-.037 1.378-.114.46-.077.892-.19 1.292-.336v-2.804h-3.207v-1.838h5.503v5.838c-.791.37-1.623.655-2.493.851-.87.197-1.737.297-2.598.297-1.388.003-2.593-.28-3.614-.846zM106.313 35.57c-.081-.402-.136-.858-.163-1.368-.364.434-.839.803-1.421 1.105-.582.302-1.242.455-1.977.455-.595 0-1.134-.117-1.623-.35-.489-.232-.875-.585-1.162-1.052-.288-.47-.432-1.043-.432-1.718 0-1.002.36-1.8 1.081-2.4.722-.599 1.925-.896 3.61-.896.632 0 1.258.046 1.876.134v-.201c0-.913-.194-1.556-.585-1.93-.388-.373-.946-.56-1.675-.56-.503 0-1.042.074-1.618.22-.573.146-1.078.321-1.512.527l-.374-1.723c.422-.192.976-.367 1.666-.527.688-.16 1.416-.24 2.183-.24.894 0 1.654.137 2.277.408.626.27 1.115.735 1.465 1.397.352.661.527 1.55.527 2.665v4.106c0 .426.026 1.076.077 1.944h-2.22v.004zm-1.416-1.915c.491-.235.894-.53 1.205-.88v-1.914c-.644-.07-1.172-.106-1.579-.106-.976 0-1.652.158-2.025.475-.374.316-.561.743-.561 1.277 0 .51.136.89.407 1.134.271.244.64.369 1.105.369.475 0 .956-.117 1.448-.355zM110.526 33.092V20.888l2.354-.192v11.976c0 .441.074.75.225.933.149.182.389.273.715.273.146 0 .354-.036.623-.105l.278 1.694c-.223.089-.496.16-.82.216-.321.055-.626.081-.913.081-1.642-.002-2.462-.894-2.462-2.672zM116.413 33.092V20.888l2.354-.192v11.976c0 .441.074.75.225.933.149.182.388.273.714.273.146 0 .355-.036.623-.105l.278 1.694c-.222.089-.496.16-.819.216-.321.055-.628.081-.913.081-1.642-.002-2.462-.894-2.462-2.672zM130.407 30.707h-6.759c.108 2.165 1.139 3.245 3.092 3.245.484 0 .981-.06 1.489-.177.508-.117.994-.276 1.459-.474l.518 1.617c-1.155.561-2.454.842-3.897.842-1.098 0-2.023-.206-2.776-.623-.752-.415-1.318-1.012-1.699-1.79-.379-.78-.57-1.717-.57-2.815 0-1.143.201-2.126.604-2.948.402-.824.961-1.452 1.68-1.886.716-.434 1.546-.652 2.483-.652.975 0 1.793.228 2.447.686.654.455 1.138 1.064 1.455 1.824.316.76.472 1.598.472 2.516v.635h.002zm-2.305-1.503c-.044-.822-.252-1.44-.624-1.852-.369-.412-.865-.619-1.483-.619-.599 0-1.1.207-1.498.624-.398.414-.659 1.03-.781 1.848h4.386zM132.312 27.836c0-.568-.026-1.433-.077-2.593h2.21c.039.287.074.63.11 1.028.034.4.06.723.072.97.274-.453.544-.834.808-1.143.264-.31.575-.56.93-.757.355-.194.757-.293 1.21-.293.365 0 .676.039.94.115l-.297 2.05c-.23-.07-.484-.106-.767-.106-.556 0-1.04.142-1.455.427-.415.285-.858.752-1.33 1.402v6.634h-2.356v-7.734h.002zM139.934 39.795c-.345-.06-.628-.129-.851-.206l.431-1.723c.159.046.36.086.604.13.242.04.473.062.688.062 1.048 0 1.831-.674 2.356-2.02l.154-.384-3.809-10.417h2.536l1.915 5.82c.312.994.513 1.76.604 2.289.18-.748.388-1.493.63-2.241l1.944-5.867h2.382l-3.798 10.461c-.357.99-.743 1.788-1.158 2.395-.415.606-.904 1.057-1.469 1.35-.566.294-1.247.44-2.045.44-.4.003-.769-.026-1.114-.089zM49.986 8.207h4.264l-.12 1.03h-2.896v1.994h2.73v.966h-2.73v2.21h3.05l-.106 1.04h-4.195v-7.24h.003zM57.188 11.751l-2.25-3.545h1.418l1.525 2.606 1.605-2.606h1.381l-2.229 3.5 2.414 3.739h-1.44l-1.724-2.85-1.755 2.85h-1.38l2.435-3.694zM61.972 8.206h1.949c.915 0 1.617.187 2.104.561.487.374.731.913.731 1.62 0 .48-.108.9-.326 1.256-.218.357-.522.633-.913.825-.39.191-.839.287-1.345.287-.275 0-.592-.033-.949-.1v2.79h-1.248V8.206h-.003zm3.135 3.234c.266-.242.4-.583.4-1.021 0-.446-.136-.767-.407-.966-.27-.197-.671-.295-1.198-.295h-.681v2.57c.314.05.554.073.719.073.513 0 .901-.122 1.167-.361zM67.99 8.206h1.25v6.17h2.993l-.106 1.069h-4.139V8.206h.003zM74.133 15.09c-.53-.305-.935-.729-1.215-1.278s-.42-1.186-.42-1.912c0-.763.149-1.431.448-2.002.297-.573.729-1.014 1.29-1.325.56-.312 1.224-.468 1.987-.468.73 0 1.359.151 1.883.453.528.302.928.727 1.206 1.273.278.547.415 1.18.415 1.9 0 .777-.151 1.453-.453 2.026-.302.573-.731 1.014-1.29 1.325-.558.31-1.215.465-1.968.465-.723-.002-1.354-.153-1.883-.457zm3.24-.887c.35-.235.611-.559.786-.97.173-.413.26-.883.26-1.413 0-.52-.078-.982-.231-1.39-.153-.407-.398-.73-.736-.973-.338-.242-.77-.362-1.299-.362-.506 0-.937.123-1.29.367-.352.245-.618.573-.793.985-.177.412-.266.865-.266 1.362 0 .522.084.992.25 1.404.165.412.421.74.764.98s.77.36 1.275.36c.504.002.93-.115 1.28-.35zM81.122 8.206h2.265c.827 0 1.453.166 1.877.494.424.33.637.8.637 1.414 0 .384-.076.721-.23 1.012-.153.292-.343.53-.57.711-.228.185-.46.322-.7.41l2.224 3.195h-1.45l-1.884-2.869h-.92v2.87h-1.249V8.205zm1.96 3.425c.305 0 .574-.06.806-.177.232-.118.415-.285.544-.499.13-.215.194-.465.194-.747 0-.365-.115-.628-.345-.799-.23-.167-.566-.251-1.004-.251h-.904v2.473h.71zM87.617 8.206h4.264l-.12 1.03h-2.895v1.995h2.73v.966h-2.73v2.21h3.049l-.106 1.04h-4.194v-7.24h.002zM96.519 8.206h1.249v7.239h-1.249V8.206zM101.072 9.251h-2.246l.11-1.045h5.635l-.115 1.045h-2.133v6.194h-1.249V9.25h-.002zM109.996 15.09c-.53-.305-.935-.729-1.215-1.278-.281-.549-.42-1.186-.42-1.912 0-.763.149-1.431.449-2.002.297-.573.728-1.014 1.289-1.325.561-.312 1.225-.468 1.987-.468.731 0 1.359.151 1.884.453.527.302.927.727 1.205 1.273.278.547.415 1.18.415 1.9 0 .777-.151 1.453-.453 2.026-.302.573-.731 1.014-1.289 1.325-.559.31-1.216.465-1.968.465-.726-.002-1.354-.153-1.884-.457zm3.238-.887c.35-.235.611-.559.786-.97.173-.413.259-.883.259-1.413 0-.52-.077-.982-.23-1.39-.154-.407-.398-.73-.736-.973-.338-.242-.769-.362-1.299-.362-.506 0-.937.123-1.289.367-.353.245-.619.573-.794.985-.177.412-.266.865-.266 1.362 0 .522.084.992.249 1.404.166.412.422.74.765.98s.769.36 1.275.36c.503.002.93-.115 1.28-.35zM116.983 8.206h1.436l3.578 5.609c-.028-.532-.045-1.026-.045-1.474V8.206h1.16v7.239h-1.39l-3.634-5.698c.036.648.055 1.22.055 1.719v3.979h-1.16V8.206z"/>
    <path fill="#C8102E" fill-rule="evenodd" d="M32.438 8.15H19.086c-6.29 0-8.59 2.3-8.59 8.59v13.352c0 6.289 2.3 8.59 8.59 8.59h13.347c6.29 0 8.595-2.301 8.595-8.59V16.739c0-6.289-2.298-8.59-8.59-8.59z" clip-rule="evenodd"/>
    <path fill="#fff" d="M16.542 23.419h.81v3.993h-.81v-1.62h-1.829v1.62h-.81v-3.993h.81v1.61h1.83v-1.61zm4.561 2.284c0 .65-.321.995-.908.995s-.913-.358-.913-1.024V23.42h-.81V25.7c0 1.121.623 1.766 1.71 1.766 1.099 0 1.729-.657 1.729-1.8v-2.253h-.81v2.289h.002zm9.362.46l-.906-2.744h-.662l-.905 2.744-.883-2.744h-.862l1.392 3.99h.671l.909-2.622.908 2.623h.676l1.388-3.991h-.84l-.886 2.744zm3.176-.47h1.474v-.726H33.64v-.817h2.138v-.729H32.84v3.986h3.015v-.726h-2.214v-.988zm3.18 1.712h.798v-3.986h-.798v3.986zm-13.307-.827l-.364.832h-.827l1.76-3.991h.714l1.752 3.99H25.7l-.36-.831h-1.826zm.302-.722h1.225l-.614-1.428-.61 1.428zM25.763 18.335c-2.802 0-5.084-2.28-5.084-5.083h.72c0 2.406 1.957 4.364 4.364 4.364 2.406 0 4.364-1.958 4.364-4.364h.72c-.003 2.804-2.283 5.083-5.084 5.083z"/>
</svg>
