<svg xmlns="http://www.w3.org/2000/svg" width="144" height="48" fill="none" viewBox="0 0 144 48">
    <path fill="#404852" d="M29.722 24.358c-.03-3.3 2.704-4.906 2.828-4.983-1.548-2.255-3.947-2.564-4.788-2.588-2.016-.21-3.97 1.206-4.995 1.206-1.047 0-2.627-1.184-4.331-1.15-2.19.033-4.242 1.303-5.367 3.273-2.32 4.017-.59 9.923 1.633 13.17 1.112 1.592 2.41 3.368 4.113 3.303 1.663-.07 2.286-1.062 4.295-1.062 1.989 0 2.574 1.062 4.309 1.021 1.786-.028 2.912-1.596 3.983-3.202 1.285-1.824 1.803-3.619 1.822-3.71-.04-.012-3.468-1.32-3.502-5.278zM26.443 14.652c.894-1.12 1.508-2.644 1.338-4.19-1.297.057-2.917.896-3.85 1.992-.824.965-1.562 2.547-1.373 4.033 1.457.108 2.953-.733 3.885-1.835zM50.761 32.566h-5.68l-1.364 4.026H41.31l5.381-14.9h2.5l5.378 14.9h-2.447l-1.361-4.026zm-5.093-1.86h4.501l-2.22-6.536h-.062l-2.22 6.536zM66.188 31.16c0 3.378-1.807 5.546-4.535 5.546-1.548 0-2.778-.692-3.418-1.9h-.052v5.38h-2.23V25.73h2.16v1.808h.04c.622-1.165 1.942-1.92 3.46-1.92 2.756-.003 4.575 2.178 4.575 5.543zm-2.294 0c0-2.2-1.136-3.645-2.871-3.645-1.704 0-2.85 1.476-2.85 3.645 0 2.189 1.146 3.655 2.85 3.655 1.735 0 2.871-1.435 2.871-3.655zM78.145 31.16c0 3.378-1.807 5.546-4.534 5.546-1.549 0-2.778-.692-3.418-1.9h-.053v5.38h-2.229V25.73h2.16v1.808h.04c.621-1.165 1.942-1.92 3.459-1.92 2.756-.003 4.575 2.178 4.575 5.543zm-2.293 0c0-2.2-1.136-3.645-2.872-3.645-1.704 0-2.85 1.476-2.85 3.645 0 2.189 1.146 3.655 2.85 3.655 1.736 0 2.872-1.435 2.872-3.655zM86.047 32.44c.165 1.48 1.6 2.448 3.561 2.448 1.88 0 3.231-.971 3.231-2.304 0-1.157-.815-1.848-2.746-2.325l-1.932-.465c-2.737-.661-4.008-1.941-4.008-4.017 0-2.571 2.241-4.335 5.422-4.335 3.15 0 5.306 1.766 5.38 4.335h-2.25c-.134-1.486-1.364-2.384-3.161-2.384-1.795 0-3.025.908-3.025 2.229 0 1.054.786 1.673 2.706 2.147l1.642.403c3.058.724 4.328 1.95 4.328 4.13 0 2.787-2.22 4.534-5.752 4.534-3.305 0-5.537-1.704-5.68-4.4h2.284v.004zM100.008 23.158v2.571h2.066v1.767h-2.066v5.99c0 .93.415 1.363 1.321 1.363.228 0 .59-.031.733-.053v1.755c-.246.062-.743.103-1.239.103-2.2 0-3.058-.827-3.058-2.934v-6.227h-1.58v-1.766h1.58v-2.572h2.243v.003zM103.27 31.16c0-3.417 2.013-5.565 5.153-5.565 3.149 0 5.153 2.148 5.153 5.566 0 3.427-1.994 5.565-5.153 5.565s-5.153-2.138-5.153-5.566zm8.033 0c0-2.343-1.073-3.729-2.88-3.729-1.808 0-2.881 1.395-2.881 3.73 0 2.353 1.073 3.727 2.881 3.727 1.807 0 2.88-1.374 2.88-3.727zM115.414 25.73h2.126v1.847h.053c.34-1.23 1.332-1.963 2.612-1.963.319 0 .587.043.765.084v2.085c-.175-.072-.568-.134-1.002-.134-1.436 0-2.325.97-2.325 2.5v6.442h-2.229V25.73zM131.252 33.401c-.3 1.973-2.219 3.327-4.678 3.327-3.162 0-5.122-2.116-5.122-5.515 0-3.408 1.972-5.618 5.028-5.618 3.006 0 4.897 2.064 4.897 5.36v.764h-7.672v.134c0 1.858 1.167 3.078 2.921 3.078 1.239 0 2.21-.588 2.51-1.53h2.116zm-7.538-3.242h5.431c-.052-1.664-1.114-2.757-2.665-2.757-1.539 0-2.653 1.115-2.766 2.757zM43.408 11.27c.47-.07 1.028-.125 1.64-.125 1.109 0 1.897.256 2.42.745.532.487.843 1.18.843 2.145 0 .976-.301 1.774-.86 2.323-.558.558-1.481.86-2.641.86-.549 0-1.012-.026-1.4-.072V11.27h-.002zm.771 5.282c.195.036.48.043.782.043 1.649 0 2.545-.923 2.545-2.536.01-1.41-.788-2.305-2.42-2.305-.398 0-.7.036-.904.079v4.719h-.003zM53.2 14.982c0 1.587-1.1 2.28-2.137 2.28-1.16 0-2.057-.851-2.057-2.208 0-1.436.94-2.28 2.129-2.28 1.232 0 2.066.897 2.066 2.208zm-3.403.046c0 .94.54 1.649 1.304 1.649.745 0 1.304-.7 1.304-1.666 0-.726-.364-1.65-1.285-1.65-.925-.002-1.323.852-1.323 1.667zM54.43 12.873l.568 2.18c.124.48.24.924.318 1.367h.027c.098-.434.24-.896.38-1.357l.7-2.19h.657l.667 2.145c.16.513.282.966.38 1.4h.027c.07-.434.187-.887.328-1.393l.612-2.155h.771l-1.383 4.293h-.709l-.657-2.05c-.15-.479-.275-.903-.38-1.409h-.018c-.105.516-.24.96-.39 1.42l-.69 2.039h-.71l-1.294-4.293h.795v.003zM60.641 14.035c0-.443-.01-.807-.035-1.162h.69l.043.71h.017c.213-.408.71-.808 1.419-.808.594 0 1.517.354 1.517 1.826v2.562h-.78V14.69c0-.69-.256-1.268-.992-1.268-.515 0-.913.364-1.047.798-.036.098-.053.23-.053.364v2.58h-.779v-3.129zM65.562 10.87h.779v6.295h-.779V10.87zM71.538 14.982c0 1.587-1.1 2.28-2.138 2.28-1.16 0-2.057-.851-2.057-2.208 0-1.436.94-2.28 2.129-2.28 1.23 0 2.066.897 2.066 2.208zm-3.406.046c0 .94.54 1.649 1.304 1.649.745 0 1.303-.7 1.303-1.666 0-.726-.364-1.65-1.284-1.65-.925-.002-1.323.852-1.323 1.667zM74.893 17.165l-.062-.541h-.026c-.24.338-.7.64-1.314.64-.87 0-1.313-.612-1.313-1.232 0-1.038.922-1.606 2.581-1.597v-.088c0-.355-.098-.992-.975-.992-.398 0-.815.124-1.117.318l-.178-.515c.355-.23.87-.381 1.41-.381 1.313 0 1.632.896 1.632 1.757v1.606c0 .373.017.735.07 1.028h-.708v-.003zm-.115-2.19c-.85-.017-1.817.134-1.817.966 0 .505.336.743.736.743.559 0 .913-.355 1.038-.717.026-.08.046-.168.046-.247v-.745h-.003zM80.494 10.87v5.186c0 .38.01.817.036 1.11h-.7l-.036-.746h-.016c-.24.48-.763.844-1.463.844-1.037 0-1.835-.88-1.835-2.181-.01-1.426.877-2.306 1.924-2.306.657 0 1.1.312 1.294.657h.017v-2.565h.78zm-.779 3.75c0-.096-.01-.23-.036-.328-.115-.496-.541-.904-1.126-.904-.808 0-1.285.71-1.285 1.656 0 .87.427 1.587 1.268 1.587.522 0 1.002-.345 1.143-.93.027-.105.036-.213.036-.338v-.743zM87.55 14.982c0 1.587-1.1 2.28-2.138 2.28-1.16 0-2.056-.851-2.056-2.208 0-1.436.939-2.28 2.128-2.28 1.232 0 2.066.897 2.066 2.208zm-3.406.046c0 .94.54 1.649 1.304 1.649.745 0 1.304-.7 1.304-1.666 0-.726-.365-1.65-1.285-1.65-.925-.002-1.323.852-1.323 1.667zM88.53 14.035c0-.443-.01-.807-.036-1.162h.69l.046.71h.017c.213-.408.71-.808 1.419-.808.594 0 1.517.354 1.517 1.826v2.562h-.78V14.69c0-.69-.256-1.268-.991-1.268-.516 0-.914.364-1.048.798-.036.098-.053.23-.053.364v2.58h-.779v-3.129h-.002zM96.267 11.64v1.233h1.117v.594h-1.117v2.313c0 .532.15.834.585.834.203 0 .354-.026.453-.053l.036.585c-.151.063-.391.106-.69.106-.365 0-.657-.115-.842-.329-.223-.23-.302-.61-.302-1.117v-2.339h-.666v-.594h.666v-1.028l.76-.204zM98.26 10.87h.78v2.676h.016c.125-.22.32-.417.559-.548.23-.132.506-.223.798-.223.578 0 1.498.354 1.498 1.835v2.553h-.779v-2.466c0-.69-.256-1.278-.992-1.278-.506 0-.904.355-1.048.782-.043.105-.052.223-.052.371v2.589h-.78v-6.292zM103.613 15.162c.016 1.054.69 1.49 1.471 1.49.559 0 .897-.098 1.189-.223l.132.559c-.273.125-.746.266-1.426.266-1.321 0-2.109-.87-2.109-2.162 0-1.294.762-2.315 2.013-2.315 1.4 0 1.774 1.232 1.774 2.023 0 .16-.017.282-.027.364h-3.017v-.002zm2.286-.559c.01-.496-.204-1.268-1.081-1.268-.788 0-1.136.726-1.196 1.268h2.277z"/>
    <path fill="#404852" d="M143.576 10.131c0-.369 0-.738-.005-1.105-.029-.803-.075-1.608-.223-2.401-.137-.803-.374-1.553-.743-2.284-.369-.72-.846-1.376-1.419-1.947-.568-.568-1.222-1.047-1.941-1.414-.738-.371-1.486-.61-2.289-.752-.791-.144-1.596-.192-2.399-.211-.367-.005-.741-.012-1.108-.015-.431-.002-.87-.002-1.301-.002H11.442c-.441 0-.875 0-1.313.002-.367.003-.731.01-1.103.015-.798.019-1.608.07-2.404.21C5.82.37 5.072.61 4.34.98c-.719.37-1.373.846-1.94 1.414-.576.568-1.05 1.228-1.415 1.947-.374.73-.609 1.478-.75 2.284C.09 7.418.04 8.223.019 9.026c-.012.37-.012.738-.019 1.105V37.87c.005.371.007.733.02 1.107.02.803.069 1.608.215 2.402.139.803.376 1.558.75 2.284.364.714.839 1.373 1.414 1.936.568.573 1.225 1.05 1.941 1.415.731.373 1.48.61 2.282.757.798.144 1.606.19 2.404.213.372.007.736.012 1.103.012.438.003.872.003 1.313.003h120.711c.431 0 .87 0 1.301-.003.367 0 .741-.005 1.108-.012.802-.021 1.61-.07 2.399-.213.803-.146 1.55-.381 2.288-.758.717-.364 1.374-.84 1.942-1.414.573-.563 1.047-1.222 1.419-1.936.366-.729.606-1.481.743-2.284.148-.794.194-1.599.223-2.402.004-.374.004-.733.004-1.107.01-.436.01-.87.01-1.313V11.442c-.005-.44-.005-.875-.014-1.31zm-1.038 26.425c0 .436 0 .86-.01 1.289 0 .39 0 .748-.005 1.114-.024.707-.067 1.484-.206 2.225-.124.735-.335 1.385-.647 2.003-.323.623-.736 1.187-1.217 1.664-.496.5-1.06.91-1.68 1.227-.624.316-1.259.525-2.002.659-.769.139-1.565.177-2.243.196-.352.008-.719.012-1.076.012l-1.302.003-122.017-.003c-.366 0-.721-.004-1.085-.012-.671-.019-1.467-.055-2.244-.196-.733-.132-1.383-.348-1.987-.657-.625-.316-1.188-.728-1.675-1.22-.496-.486-.906-1.047-1.225-1.675-.311-.607-.525-1.256-.652-1.99-.146-.807-.184-1.627-.198-2.25-.008-.254-.017-1.095-.017-1.095V10.13s.01-.83.017-1.074c.016-.628.052-1.447.198-2.245.13-.736.34-1.386.652-1.995.32-.63.729-1.19 1.218-1.677.496-.496 1.062-.909 1.682-1.227.616-.314 1.266-.528 1.985-.652.808-.144 1.627-.182 2.25-.197l1.084-.014h123.311l1.095.014c.616.015 1.434.053 2.229.194.724.127 1.376.343 2.006.657.616.316 1.18.726 1.671 1.218.491.486.901 1.054 1.227 1.684.309.614.52 1.264.642 1.98.139.758.182 1.534.209 2.265.002.34.002.705.002 1.07.01.45.01.876.01 1.31v25.114z"/>
</svg>
