<svg xmlns="http://www.w3.org/2000/svg" width="163" height="48" fill="none" viewBox="0 0 163 48">
    <path fill="#404852" d="M156.791.959c2.778 0 5.041 2.26 5.041 5.04v35.997c0 2.778-2.26 5.04-5.041 5.04H6.805c-2.778 0-5.04-2.26-5.04-5.04V6c0-2.778 2.26-5.04 5.04-5.04H156.79zm0-.959H6.805c-3.3 0-6 2.699-6 6v35.996c0 3.3 2.7 6 6 6H156.79c3.301 0 5.999-2.7 5.999-6V6C162.793 2.7 160.092 0 156.791 0z"/>
    <path fill="#404852" d="M82.564 26.098c-2.823 0-5.122 2.146-5.122 5.103 0 2.939 2.3 5.103 5.122 5.103 2.823 0 5.122-2.164 5.122-5.103 0-2.955-2.301-5.103-5.122-5.103zm0 8.197c-1.546 0-2.881-1.275-2.881-3.094 0-1.836 1.335-3.092 2.88-3.092 1.547 0 2.882 1.256 2.882 3.092-.003 1.82-1.335 3.094-2.881 3.094zm-11.176-8.197c-2.823 0-5.122 2.146-5.122 5.103 0 2.939 2.3 5.103 5.122 5.103 2.823 0 5.122-2.164 5.122-5.103 0-2.955-2.299-5.103-5.122-5.103zm0 8.197c-1.546 0-2.881-1.275-2.881-3.094 0-1.836 1.335-3.092 2.88-3.092 1.547 0 2.882 1.256 2.882 3.092 0 1.82-1.335 3.094-2.881 3.094zm-13.292-6.63v2.165h5.181c-.155 1.218-.56 2.107-1.179 2.725-.755.755-1.934 1.585-4.002 1.585-3.19 0-5.683-2.572-5.683-5.762 0-3.19 2.493-5.762 5.683-5.762 1.72 0 2.976.676 3.904 1.546l1.527-1.527c-1.295-1.237-3.015-2.183-5.431-2.183-4.37 0-8.041 3.556-8.041 7.926s3.672 7.926 8.04 7.926c2.36 0 4.137-.774 5.53-2.224 1.43-1.431 1.874-3.442 1.874-5.065 0-.503-.038-.966-.115-1.354h-7.288v.005zm54.365 1.681c-.425-1.14-1.721-3.248-4.37-3.248-2.629 0-4.812 2.069-4.812 5.103 0 2.862 2.164 5.103 5.064 5.103 2.339 0 3.693-1.431 4.252-2.263l-1.74-1.16c-.58.851-1.374 1.412-2.512 1.412-1.141 0-1.953-.523-2.473-1.546l6.823-2.823-.232-.578zm-6.961 1.702c-.057-1.973 1.527-2.977 2.668-2.977.889 0 1.644.443 1.893 1.083l-4.561 1.894zm-5.548 4.95h2.243V20.995h-2.243v15.001zm-3.672-8.759h-.076c-.504-.599-1.47-1.14-2.687-1.14-2.553 0-4.892 2.243-4.892 5.121 0 2.862 2.34 5.084 4.892 5.084 1.217 0 2.183-.542 2.687-1.16h.076v.733c0 1.954-1.042 2.996-2.725 2.996-1.373 0-2.224-.985-2.572-1.817l-1.953.813c.561 1.354 2.05 3.015 4.523 3.015 2.629 0 4.85-1.546 4.85-5.316v-9.163h-2.125v.834h.002zm-2.571 7.056c-1.546 0-2.843-1.294-2.843-3.072 0-1.798 1.294-3.114 2.843-3.114 1.526 0 2.725 1.314 2.725 3.114 0 1.778-1.199 3.072-2.725 3.072zm29.254-13.3h-5.364v15.002h2.239v-5.683h3.125c2.483 0 4.92-1.797 4.92-4.659s-2.437-4.66-4.92-4.66zm.057 7.232h-3.185v-5.141h3.185c1.673 0 2.625 1.385 2.625 2.571 0 1.16-.949 2.57-2.625 2.57zm13.839-2.155c-1.62 0-3.3.714-3.995 2.296l1.987.83c.424-.83 1.215-1.1 2.044-1.1 1.158 0 2.334.694 2.354 1.929v.153c-.405-.232-1.273-.58-2.335-.58-2.142 0-4.323 1.177-4.323 3.377 0 2.006 1.756 3.3 3.724 3.3 1.505 0 2.334-.675 2.857-1.466h.077v1.157h2.161v-5.75c.003-2.66-1.986-4.146-4.551-4.146zm-.271 8.221c-.733 0-1.757-.367-1.757-1.273 0-1.157 1.273-1.6 2.373-1.6.985 0 1.448.213 2.045.5-.171 1.388-1.369 2.373-2.661 2.373zm12.698-7.893l-2.567 6.503h-.076L143.98 26.4h-2.411l3.995 9.089-2.277 5.057h2.335l6.157-14.146h-2.493zm-20.166 9.597h2.239V20.996h-2.239v15.001z"/>
    <path fill="url(#paint0_linear)" d="M13.326 9.043c-.35.37-.556.942-.556 1.685v26.537c0 .743.207 1.316.556 1.685l.09.086L28.28 24.171v-.349L13.415 8.957l-.088.086z"/>
    <path fill="url(#paint1_linear)" d="M33.237 29.13l-4.954-4.956v-.35l4.956-4.957.113.065 5.872 3.336c1.678.954 1.678 2.512 0 3.466l-5.872 3.336-.115.06z"/>
    <path fill="url(#paint2_linear)" d="M33.35 29.068l-5.068-5.07L13.33 38.953c.554.585 1.464.657 2.493.075l17.527-9.96z"/>
    <path fill="url(#paint3_linear)" d="M33.35 18.93L15.82 8.969c-1.029-.585-1.942-.51-2.493.074L28.28 23.996l5.07-5.066z"/>
    <path fill="#000" d="M33.24 28.956l-17.418 9.896c-.975.554-1.845.518-2.404.012l-.088.089.088.086c.559.503 1.431.541 2.404-.012l17.53-9.961-.112-.11z" opacity=".2"/>
    <path fill="#000" d="M13.326 38.778c-.35-.37-.556-.942-.556-1.685v.174c0 .743.207 1.316.556 1.685l.09-.088-.09-.086zM39.222 25.557l-5.983 3.398.113.113 5.872-3.336c.839-.477 1.258-1.105 1.258-1.733-.074.568-.5 1.124-1.26 1.558z" opacity=".12"/>
    <path fill="#fff" d="M15.822 9.146l23.4 13.295c.76.431 1.186.987 1.258 1.558 0-.628-.42-1.256-1.258-1.733l-23.4-13.295c-1.678-.954-3.049-.16-3.049 1.76v.174c0-1.92 1.371-2.71 3.05-1.759z" opacity=".25"/>
    <path fill="#404852" d="M55.275 14.817c-.345.124-1.028.328-1.836.328-.904 0-1.649-.23-2.234-.788-.513-.496-.834-1.295-.834-2.227.01-1.783 1.232-3.085 3.236-3.085.692 0 1.232.151 1.49.276l-.186.63c-.32-.141-.72-.256-1.321-.256-1.455 0-2.404.903-2.404 2.404 0 1.515.913 2.411 2.306 2.411.505 0 .85-.072 1.028-.16v-1.784h-1.213v-.62h1.968v2.87zM56.905 13.08c.017 1.054.693 1.49 1.472 1.49.558 0 .896-.098 1.188-.223l.132.559c-.273.124-.745.265-1.426.265-1.32 0-2.109-.867-2.109-2.161 0-1.295.762-2.316 2.013-2.316 1.4 0 1.774 1.232 1.774 2.023 0 .16-.017.283-.026.364h-3.018v-.002zm2.287-.56c.01-.495-.204-1.267-1.081-1.267-.789 0-1.136.726-1.196 1.268h2.277zM61.848 9.558v1.232h1.117v.595h-1.117v2.313c0 .532.15.834.585.834.203 0 .354-.027.453-.053l.036.585c-.151.062-.391.105-.693.105-.364 0-.657-.115-.841-.328-.223-.23-.302-.611-.302-1.117v-2.34h-.667v-.594h.667V9.762l.762-.204zM66.589 9.585c.01.266-.187.479-.496.479-.273 0-.47-.213-.47-.48 0-.275.204-.486.487-.486.292 0 .479.211.479.487zm-.87 5.498V10.79h.779v4.293h-.78zM68.734 9.558v1.232h1.117v.595h-1.117v2.313c0 .532.151.834.585.834.204 0 .355-.027.453-.053l.036.585c-.151.062-.39.105-.69.105-.365 0-.657-.115-.842-.328-.222-.23-.302-.611-.302-1.117v-2.34h-.666v-.594h.666V9.762l.76-.204zM76.49 12.9c0 1.586-1.1 2.279-2.138 2.279-1.16 0-2.056-.851-2.056-2.208 0-1.435.94-2.28 2.128-2.28 1.232 0 2.066.897 2.066 2.208zm-3.406.045c0 .94.54 1.649 1.304 1.649.746 0 1.304-.7 1.304-1.666 0-.726-.364-1.649-1.285-1.649-.925-.002-1.323.851-1.323 1.666zM77.47 11.953c0-.444-.01-.808-.036-1.163h.692l.043.71h.017c.213-.408.71-.808 1.42-.808.594 0 1.516.355 1.516 1.826v2.562h-.779v-2.47c0-.691-.256-1.269-.992-1.269-.515 0-.913.365-1.047.799-.036.098-.053.23-.053.364v2.579h-.78v-3.13h-.002z"/>
    <defs>
        <linearGradient id="paint0_linear" x1="26.964" x2="6.826" y1="10.45" y2="30.588" gradientUnits="userSpaceOnUse">
            <stop stop-color="#4995D1"/>
            <stop offset=".007" stop-color="#4A97D1"/>
            <stop offset=".26" stop-color="#40B8E9"/>
            <stop offset=".512" stop-color="#3EC5F0"/>
            <stop offset=".76" stop-color="#53C7E8"/>
            <stop offset="1" stop-color="#59C8E6"/>
        </linearGradient>
        <linearGradient id="paint1_linear" x1="41.405" x2="12.37" y1="23.999" y2="23.999" gradientUnits="userSpaceOnUse">
            <stop stop-color="#FDDE00"/>
            <stop offset=".409" stop-color="#FBBB12"/>
            <stop offset=".775" stop-color="#F9A21B"/>
            <stop offset="1" stop-color="#F89A1C"/>
        </linearGradient>
        <linearGradient id="paint2_linear" x1="30.596" x2="3.288" y1="26.753" y2="54.061" gradientUnits="userSpaceOnUse">
            <stop stop-color="#EE4048"/>
            <stop offset="1" stop-color="#BF1E64"/>
        </linearGradient>
        <linearGradient id="paint3_linear" x1="9.562" x2="21.756" y1=".21" y2="12.405" gradientUnits="userSpaceOnUse">
            <stop stop-color="#329E72"/>
            <stop offset=".069" stop-color="#29A571"/>
            <stop offset=".476" stop-color="#4AB871"/>
            <stop offset=".801" stop-color="#5CBB6A"/>
            <stop offset="1" stop-color="#64BD68"/>
        </linearGradient>
    </defs>
</svg>
