<svg xmlns="http://www.w3.org/2000/svg" width="48" height="48" fill="none" viewBox="0 0 48 48">
    <path stroke="#007ACC" stroke-linecap="round" stroke-linejoin="round" stroke-width="2.25" d="M39 7.5H9c-.828 0-1.5.672-1.5 1.5v30c0 .828.672 1.5 1.5 1.5h30c.828 0 1.5-.672 1.5-1.5V9c0-.828-.672-1.5-1.5-1.5zM33 4.5v6M15 4.5v6M7.5 16.5h33"/>
    <path stroke="#007ACC" stroke-linecap="round" stroke-linejoin="round" stroke-width="2.25" d="M17.25 24h5.25l-3 3.75c.493 0 .979.121 1.414.354.435.232.806.568 1.08.978.274.41.443.882.491 1.373.049.49-.024.986-.213 1.442-.189.455-.487.858-.868 1.17-.381.314-.834.528-1.317.624-.484.097-.984.073-1.456-.07-.472-.143-.902-.4-1.251-.749M27 26.25L30 24v9.75"/>
</svg>
