<svg xmlns="http://www.w3.org/2000/svg" width="20" height="20" fill="none" viewBox="0 0 20 20">
    <g fill="#797F86" clip-path="url(#clip0)">
        <path d="M4.157 18c-.518 0-.942-.422-.942-.938v-5.109c0-.515.424-.937.942-.937s.942.421.942.937v5.11c0 .515-.424.937-.942.937zM4.157 9.984c-.518 0-.942-.421-.942-.937v-5.11c0-.515.424-.937.942-.937s.942.422.942.938v5.109c0 .515-.424.937-.942.937zM10 18c-.518 0-.942-.422-.942-.938V10.5c0-.516.424-.938.942-.938s.942.422.942.938v6.563c0 .515-.424.937-.942.937zM10 8.531c-.518 0-.942-.422-.942-.937V3.937c0-.515.424-.937.942-.937s.942.422.942.938v3.656c0 .515-.424.937-.942.937zM15.89 18c-.518 0-.942-.422-.942-.938v-3.656c0-.515.424-.937.942-.937s.942.422.942.937v3.656c0 .516-.424.938-.942.938zM15.89 11.438c-.518 0-.942-.422-.942-.938V3.937c0-.515.424-.937.942-.937s.942.422.942.938V10.5c0 .516-.424.938-.942.938z"/>
        <path d="M6.325 12.89H1.942c-.518 0-.942-.421-.942-.937 0-.515.424-.937.942-.937h4.383c.518 0 .942.421.942.937s-.424.938-.942.938zM12.215 8.531H7.832c-.518 0-.942-.422-.942-.937 0-.516.424-.938.942-.938h4.383c.518 0 .942.422.942.938 0 .515-.424.937-.942.937zM18.058 14.344h-4.383c-.518 0-.942-.422-.942-.938 0-.515.424-.937.942-.937h4.383c.518 0 .942.422.942.937 0 .516-.424.938-.942.938z"/>
    </g>
    <defs>
        <clipPath id="clip0">
            <path fill="#fff" d="M0 0H18V15H0z" transform="translate(1 3)"/>
        </clipPath>
    </defs>
</svg>
