<svg width="22" height="22" viewBox="0 0 22 22" fill="none" xmlns="http://www.w3.org/2000/svg">
<g clip-path="url(#clip0)">
<path d="M21.2656 6.76235C21.2174 5.66931 21.0406 4.91786 20.7874 4.26671C20.5262 3.57554 20.1244 2.95673 19.5979 2.44231C19.0834 1.91989 18.4606 1.51394 17.7774 1.25681C17.1225 1.00361 16.3749 0.826848 15.2819 0.778655C14.1807 0.726382 13.8311 0.714294 11.0382 0.714294C8.24519 0.714294 7.8956 0.726382 6.79848 0.774574C5.70544 0.822766 4.95399 0.999681 4.303 1.25273C3.61167 1.51394 2.99286 1.91581 2.47844 2.44231C1.95602 2.95673 1.55023 3.57962 1.29294 4.26279C1.03974 4.91786 0.862981 5.66523 0.814788 6.75827C0.762515 7.85947 0.750427 8.20906 0.750427 11.002C0.750427 13.795 0.762515 14.1446 0.810707 15.2417C0.858899 16.3347 1.03581 17.0862 1.28902 17.7373C1.55023 18.4285 1.95602 19.0473 2.47844 19.5617C2.99286 20.0841 3.61575 20.4901 4.29892 20.7472C4.95399 21.0004 5.70136 21.1772 6.79456 21.2254C7.89152 21.2737 8.24127 21.2857 11.0342 21.2857C13.8272 21.2857 14.1768 21.2737 15.2739 21.2254C16.3669 21.1772 17.1184 21.0004 17.7694 20.7472C19.1519 20.2127 20.2449 19.1197 20.7794 17.7373C21.0325 17.0823 21.2094 16.3347 21.2576 15.2417C21.3058 14.1446 21.3179 13.795 21.3179 11.002C21.3179 8.20906 21.3138 7.85947 21.2656 6.76235ZM19.4131 15.1613C19.3688 16.166 19.2001 16.7085 19.0594 17.0702C18.7138 17.9664 18.0025 18.6776 17.1063 19.0233C16.7446 19.1639 16.1982 19.3327 15.1974 19.3768C14.1124 19.4252 13.787 19.4371 11.0422 19.4371C8.29747 19.4371 7.96797 19.4252 6.88686 19.3768C5.8822 19.3327 5.33968 19.1639 4.97801 19.0233C4.53203 18.8585 4.12609 18.5973 3.79659 18.2557C3.455 17.9221 3.19379 17.5202 3.02897 17.0742C2.88831 16.7126 2.71956 16.166 2.67545 15.1654C2.6271 14.0804 2.61517 13.7548 2.61517 11.01C2.61517 8.26526 2.6271 7.93576 2.67545 6.85481C2.71956 5.85015 2.88831 5.30763 3.02897 4.94596C3.19379 4.49982 3.455 4.09404 3.80067 3.76438C4.13409 3.4228 4.53596 3.16158 4.98209 2.99691C5.34377 2.85626 5.89036 2.68751 6.89094 2.64324C7.97598 2.59505 8.30155 2.58296 11.0462 2.58296C13.795 2.58296 14.1204 2.59505 15.2015 2.64324C16.2062 2.68751 16.7487 2.85626 17.1104 2.99691C17.5564 3.16158 17.9623 3.4228 18.2918 3.76438C18.6334 4.09796 18.8946 4.49982 19.0594 4.94596C19.2001 5.30763 19.3688 5.85407 19.4131 6.85481C19.4613 7.93984 19.4734 8.26526 19.4734 11.01C19.4734 13.7548 19.4613 14.0763 19.4131 15.1613Z" fill="#007ACC"/>
<path d="M11.0382 5.7179C8.12074 5.7179 5.75366 8.08481 5.75366 11.0024C5.75366 13.92 8.12074 16.2869 11.0382 16.2869C13.9558 16.2869 16.3227 13.92 16.3227 11.0024C16.3227 8.08481 13.9558 5.7179 11.0382 5.7179ZM11.0382 14.4303C9.14549 14.4303 7.61024 12.8953 7.61024 11.0024C7.61024 9.10957 9.14549 7.57448 11.0382 7.57448C12.931 7.57448 14.4661 9.10957 14.4661 11.0024C14.4661 12.8953 12.931 14.4303 11.0382 14.4303Z" fill="#007ACC"/>
<path d="M17.7655 5.50881C17.7655 6.19009 17.213 6.7425 16.5316 6.7425C15.8503 6.7425 15.2979 6.19009 15.2979 5.50881C15.2979 4.82737 15.8503 4.27512 16.5316 4.27512C17.213 4.27512 17.7655 4.82737 17.7655 5.50881Z" fill="#007ACC"/>
</g>
<defs>
<clipPath id="clip0">
<rect width="20.5714" height="20.5714" fill="white" transform="translate(0.714294 0.714294)"/>
</clipPath>
</defs>
</svg>
