<svg width="20" height="20" viewBox="0 0 20 20" fill="none" xmlns="http://www.w3.org/2000/svg">
<g clip-path="url(#clip0)">
<path d="M19.4238 19.428V19.4272H19.4285V12.5114C19.4285 9.12806 18.7002 6.52185 14.7449 6.52185C12.8435 6.52185 11.5675 7.56528 11.0465 8.55449H10.9915V6.83771H7.24133V19.4272H11.1463V13.1934C11.1463 11.552 11.4575 9.96485 13.4901 9.96485C15.4929 9.96485 15.5228 11.838 15.5228 13.2986V19.428H19.4238Z" fill="#007ACC"/>
<path d="M0.882568 6.83951H4.79228V19.429H0.882568V6.83951Z" fill="#007ACC"/>
<path d="M2.83584 0.571442C1.58577 0.571442 0.571411 1.5858 0.571411 2.83587C0.571411 4.08594 1.58577 5.12151 2.83584 5.12151C4.08591 5.12151 5.10027 4.08594 5.10027 2.83587C5.09948 1.5858 4.08513 0.571442 2.83584 0.571442V0.571442Z" fill="#007ACC"/>
</g>
<defs>
<clipPath id="clip0">
<rect width="18.8571" height="18.8571" fill="white" transform="translate(0.571411 0.571442)"/>
</clipPath>
</defs>
</svg>
