<svg xmlns="http://www.w3.org/2000/svg" width="48" height="39" fill="none" viewBox="0 0 48 39">
    <path fill="#007ACC" d="M47.06 4.64c-1.74.76-3.6 1.28-5.54 1.52 2-1.2 3.52-3.06 4.24-5.32-1.86 1.1-3.92 1.9-6.1 2.32C37.9 1.28 35.38.12 32.64.12c-5.32 0-9.62 4.32-9.62 9.62 0 .76.06 1.5.22 2.2-8-.4-15.08-4.22-19.84-10.06-.84 1.44-1.32 3.08-1.32 4.86 0 3.34 1.72 6.28 4.28 8-1.54-.02-3.06-.48-4.34-1.18v.1c0 4.68 3.34 8.56 7.7 9.46-.78.22-1.64.32-2.52.32-.62 0-1.24-.04-1.82-.16 1.24 3.8 4.78 6.62 8.98 6.7-3.28 2.56-7.42 4.1-11.92 4.1-.78 0-1.54-.04-2.3-.14 4.26 2.74 9.32 4.32 14.76 4.32 17.7 0 27.38-14.66 27.38-27.38 0-.42-.02-.84-.04-1.24 1.92-1.36 3.52-3.04 4.82-5z"/>
</svg>
