<svg xmlns="http://www.w3.org/2000/svg" width="56" height="39" fill="none" viewBox="0 0 56 39">
    <path fill="#007ACC" fill-rule="evenodd" d="M49.18 1.26c2.36.64 4.22 2.5 4.86 4.86 1.2 4.34 1.14 13.32 1.14 13.32s0 8.96-1.14 13.28c-.64 2.36-2.5 4.22-4.86 4.86-4.32 1.14-21.58 1.14-21.58 1.14s-17.22 0-21.58-1.18c-2.36-.64-4.22-2.5-4.86-4.86C.02 28.4.02 19.4.02 19.4s0-8.96 1.14-13.28c.64-2.36 2.54-4.26 4.86-4.9C10.34.08 27.6.08 27.6.08s17.26 0 21.58 1.18zM22.1 11.12v16.54l14.36-8.28-14.36-8.26z" clip-rule="evenodd"/>
    <path fill="#fff" d="M36.46 19.4L22.1 27.66V11.14l14.36 8.26z"/>
</svg>
