<svg width="600" height="400" fill="none" xmlns="http://www.w3.org/2000/svg">
    <rect opacity=".5" x="141.338" y="95" width="215.198" height="210" rx="4.545" fill="#fff"/>
    <path d="M141.465 98.933A3.933 3.933 0 0 1 145.398 95H352.73a3.933 3.933 0 0 1 3.933 3.933v13.74H141.465v-13.74z" fill="#05548A"/>
    <path d="M152.397 107.871a3.677 3.677 0 1 0 0-7.353 3.677 3.677 0 0 0 0 7.353zM162.967 107.871a3.677 3.677 0 1 0 0-7.353 3.677 3.677 0 0 0 0 7.353zM173.538 107.871a3.677 3.677 0 1 0 0-7.353 3.677 3.677 0 0 0 0 7.353z" fill="#fff"/>
    <path d="M392.964 400c63.513 0 115-4.477 115-10s-51.487-10-115-10-115 4.477-115 10 51.487 10 115 10z" fill="#D6EDEA"/>
    <path d="M472.575 392.036c-1.88.721-12.072 1.949-14.921 1.604-2.849-.344-6.622-1.785-7.695-3.669-1.073-1.883-7.09-4.728-8.703-4.546a5.839 5.839 0 0 1-1.951-.273 23.906 23.906 0 0 1-3.252-1.247 6.016 6.016 0 0 1 .071-2.467c.038-.164.086-.324.144-.481a4.293 4.293 0 0 1 2.185-2.429l.234-.11a6.574 6.574 0 0 1 1.405-.429c5.113-.981 26.206.987 26.206.987s.592 1.059 1.405 2.371c1.015 1.623 2.394 3.604 3.434 4.351a6.65 6.65 0 0 1 2.218 3.819c.247 1.149.065 2.201-.78 2.519z" fill="#fff"/>
    <path opacity=".1" d="M472.576 392.036c-1.879.721-12.065 1.949-14.914 1.604-2.849-.344-6.622-1.792-7.701-3.669-1.08-1.877-7.084-4.728-8.697-4.546-1.613.182-5.203-1.52-5.203-1.52s-.559-2.597 1.067-4.37l3.252 2.305s8.703 2.695 10.316 5.196c1.613 2.5 4.553 3.896 8.8 4.15 3.174.207 10.466-1.027 13.88-1.644.228 1.124.052 2.176-.8 2.494z" fill="#000"/>
    <path d="M441.441 395.348a86.772 86.772 0 0 0-11.487.54c-6.107.714-10.771-1.949-11.584-3.046-.813-1.098-5.021-4.806-8.254-6.105-1.581-.611-1.951-2.598-1.88-4.455v-.306c.06-1.176.234-2.344.52-3.487l25.309-.539 2.192 2.968.338.455 1.333 1.811s.605.793 1.399 1.949c1.34 1.948 3.213 4.825 3.714 6.728.8 3.046-1.6 3.487-1.6 3.487z" fill="#fff"/>
    <path opacity=".1" d="M441.441 395.348a86.942 86.942 0 0 0-11.487.539c-6.101.715-10.771-1.948-11.578-3.045-.806-1.098-5.027-4.839-8.26-6.092-1.581-.611-1.951-2.598-1.88-4.455 1.808.422 5.607 1.5 7.096 3.377 1.952 2.507 5.444 6.721 10.407 6.988 4.007.214 13.763-.5 17.341-.786.767 3.033-1.639 3.474-1.639 3.474z" fill="#000"/>
    <path opacity=".1" d="M438.428 378.502c-.293 2.169-1.197 2.754-1.847 2.884a1.255 1.255 0 0 1-.481 0 1.79 1.79 0 0 1-.254-.039s-22.726 5.013-27.318.954a3.144 3.144 0 0 1-.326-.337c.06-1.177.235-2.345.521-3.488l25.308-.539 2.192 2.968a4.298 4.298 0 0 1 2.186-2.429l.019.026zM467.699 381.321c-.508.558-.93.876-1.197.766-1.197-.481-11.005-2.15-14.121-.714-3.116 1.435-13.659.233-13.659.233s0-1.247-.059-3.247a6.629 6.629 0 0 1 1.405-.428c5.113-.981 26.206.987 26.206.987s.618 1.091 1.425 2.403z" fill="#000"/>
    <path d="m482.542 234.417-2.875 19.834-3.343 13.145-4.787 24.847v26.303s3.109 52.332 1.912 53.76c-1.197 1.429-5.744 9.567-6.94 9.092-1.197-.474-11.006-2.149-14.121-.72-3.116 1.428-13.659.24-13.659.24s-.241-20.308-1.438-26.043c-1.197-5.734 2.153-30.108 2.153-30.108l1.197-13.138s1.678-8.845.241-11.235c-1.438-2.39 2.152-11.69 2.152-11.69s-1.671-5.267-1.19-8.371c.482-3.105 1.19-14.814 1.19-14.814s-1.19 8.131-4.514 12.904c-3.323 4.774-2.9 47.552-2.9 47.552l.234 37.018c5.99 19.6 0 17.685 0 17.685s-22.726 5.02-27.319.954c-4.592-4.065-3.278-29.653-3.278-29.653s-.475-20.548 1.438-26.757c1.912-6.209 2.517-29.154 2.517-29.154s-.124-45.882 0-48.98c.091-2.598 0-25.855 0-33.122v-2.149l2.745-6.807 32.521-4.065h15.559s23.415 5.494 25.835 7.865a.521.521 0 0 1 .13.143c1.568 2.292-3.46 25.464-3.46 25.464z" fill="#007ACC"/>
    <path opacity=".1" d="M443.052 338.6s7.155 17.204 10.531 18.399c3.375 1.195-10.531-18.399-10.531-18.399zM445.7 363.929s24.158 1.195 23.917 3.825c-.241 2.63-23.917-3.825-23.917-3.825zM413.38 357.051c.956.903 18.427 2.598 16.989 4.247-1.437 1.65-15.551 4.858-15.551 4.858l-1.438-9.105zM410.511 327.372c0 .714 3.59 22.938 4.553 23.892.963.955 8.852 1.91 8.852 1.91l-13.405-25.802z" fill="#000"/>
    <path d="M436.56 23.602c-3.428 3.826-4.911 9.248-8.904 12.483-2.426 1.948-5.496 2.877-8.319 4.201-2.823 1.325-5.62 3.345-6.459 6.346-.937 3.377.871 6.825 1.821 10.202.982 3.494 1.041 7.144 1.099 10.8.065 4.423.137 8.846.059 13.269-.117 6.89-.69 14.099-4.352 19.937 13.224 4.202 27.286 4.774 41.153 5.313 2.665.19 5.342.122 7.994-.202a68.47 68.47 0 0 0 6.81-1.721 52.34 52.34 0 0 1 13.568-1.734c1.997 0 4.033.124 5.958-.396 1.926-.519 3.779-1.851 4.3-3.773.462-1.727-.215-3.565-1.1-5.118-1.613-2.831-3.902-5.195-5.632-7.988a21.942 21.942 0 0 1-3.06-9.7 21.93 21.93 0 0 1 1.648-10.036c1.535-3.566 4.007-6.67 5.516-10.242a21.562 21.562 0 0 0 1.184-12.094 21.585 21.585 0 0 0-5.542-10.818c-5.249-5.365-12.781-7.443-19.988-8.547a18.167 18.167 0 0 1-8.416-3.247c-2.765-1.818-6.349-2.26-9.588-1.857a15.657 15.657 0 0 0-9.75 4.922z" fill="#363D45"/>
    <path d="M467.944 90.69c-.481 1.078-2.51 10.39-2.992 11.345-.481.955-3.109 16.236-3.349 17.093-.241.858-17.321-3.585-17.321-3.585l-10.284-8.605-10.569-10.501s-.312-9.475 7.473-12.515a11.918 11.918 0 0 1 1.626-.506c9.445-2.267 8.495-30.94 8.495-30.94l19.383 8.359s-3.591 16.73-3.467 19.957c.033 1.084.885 1.76 1.997 2.169 1.72.489 3.51.682 5.294.572 0 0 4.196 6.085 3.714 7.156z" fill="#FBBEBE"/>
    <path d="M467.944 90.69c-.481 1.078-2.51 10.39-2.992 11.345-.481.955-3.109 16.236-3.349 17.093-.241.858-17.321-3.585-17.321-3.585l-10.284-8.605-10.569-10.501s-.312-9.475 7.473-12.515a11.918 11.918 0 0 1 1.626-.506c9.445-2.267 8.495-30.94 8.495-30.94l19.383 8.359s-3.591 16.73-3.467 19.957c.033 1.084.885 1.76 1.997 2.169 1.72.489 3.51.682 5.294.572 0 0 4.196 6.085 3.714 7.156z" fill="#000" fill-opacity=".2"/>
    <path d="m502.646 122.11 2.751.72s2.036 3.092-2.751 5.969a82.675 82.675 0 0 0-8.735 6.098l-14.147 4.299-2.726-8.54 13.165-9.975 12.443 1.429z" fill="#007ACC"/>
    <path opacity=".1" d="m502.646 122.11 2.751.72s2.036 3.092-2.751 5.969a82.675 82.675 0 0 0-8.735 6.098l-14.147 4.299-2.726-8.54 13.165-9.975 12.443 1.429z" fill="#000"/>
    <path d="m399.4 130.357-5.502 5.378s9.925 11.469 17.561 12.183c7.637.715 12.56-8.722 12.56-8.722l-6.608-10.391-18.011 1.552z" fill="#6C63FF"/>
    <path opacity=".1" d="m399.4 130.357-5.502 5.378s9.925 11.469 17.561 12.183c7.637.715 12.56-8.722 12.56-8.722l-6.608-10.391-18.011 1.552zM451.669 71.213c10.572 0 19.142-8.557 19.142-19.113s-8.57-19.113-19.142-19.113-19.142 8.557-19.142 19.113 8.57 19.113 19.142 19.113z" fill="#000"/>
    <path d="M451.669 69.778c10.572 0 19.142-8.558 19.142-19.113 0-10.556-8.57-19.113-19.142-19.113s-19.142 8.557-19.142 19.113 8.57 19.113 19.142 19.113z" fill="#FBBEBE"/>
    <path d="M451.669 69.778c10.572 0 19.142-8.558 19.142-19.113 0-10.556-8.57-19.113-19.142-19.113s-19.142 8.557-19.142 19.113 8.57 19.113 19.142 19.113z" fill="#000" fill-opacity=".2"/>
    <path opacity=".1" d="M486.014 211.122a61.86 61.86 0 0 0-12.807 2.864c-7.155 2.377-63.222.039-64.003 0v-2.15l2.745-6.806 32.522-4.066h15.558s23.416 5.495 25.835 7.865c.098 1.429.15 2.293.15 2.293zM467.944 90.69c-.481 1.078-2.51 10.391-2.992 11.345-.481.955-3.109 16.236-3.349 17.094-.241.857-17.321-3.585-17.321-3.585l-10.284-8.605-10.569-10.502s-.312-9.475 7.473-12.515l19.331 22.192 8.703-23.153c1.72.489 3.51.682 5.294.572 0 0 4.196 6.085 3.714 7.156z" fill="#000"/>
    <path d="m450.233 106.828-19.786-22.73a8.301 8.301 0 0 0-7.851-.578c-4.429 1.916-9.932 3.468-11.369 4.422-1.438.955-6.823 6.865-6.823 6.865l16.039 41.895-7.063 27.595s1.079 14.099-1.672 19.236a21.098 21.098 0 0 0-2.277 10.632s.839 6.812-.117 10.391a17.298 17.298 0 0 0-.123 7.287s56.841 2.39 64.015 0a61.335 61.335 0 0 1 12.807-2.864s-1.3-23.9-2.601-29.634c-1.301-5.735 1.079-27.595 1.079-27.595l-1.554-23.419 9.327-24.029s-5.054-15.405-10.322-16.957c0 0-9.568-2.273-11.604-3.345-2.036-1.071-8.02-2.032-8.02-2.032l-3.141 1.052-8.944 23.808z" fill="#007ACC"/>
    <path opacity=".1" d="m477.838 127.54-41.636-2.826a1.911 1.911 0 0 0-2.038 1.775l-4.47 65.637a1.91 1.91 0 0 0 1.779 2.034l41.635 2.827a1.911 1.911 0 0 0 2.038-1.775l4.47-65.637a1.911 1.911 0 0 0-1.778-2.035z" fill="#000"/>
    <path d="m479.273 126.115-41.635-2.827a1.912 1.912 0 0 0-2.038 1.776l-4.47 65.636a1.91 1.91 0 0 0 1.778 2.035l41.636 2.827a1.911 1.911 0 0 0 2.037-1.776l4.47-65.637a1.91 1.91 0 0 0-1.778-2.034z" fill="#FFCD00"/>
    <path d="m477.898 131.26-39.598-2.689-4.069 59.754 39.598 2.688 4.069-59.753z" fill="#fff"/>
    <path opacity=".1" d="m474.347 146.511-32.346-2.26-.631 9.001 32.346 2.261.631-9.002z" fill="#000"/>
    <path d="m473.177 182.282-5.133-.348-.319 4.691 5.133.348.319-4.691zM468.114 170.96l-26.275-1.784-.319 4.692 26.275 1.783.319-4.691z" fill="#E8E9EA"/>
    <path d="m472.999 129.026-27.359-1.858-.491 7.212 27.359 1.857.491-7.211z" fill="#FFCD00"/>
    <path opacity=".1" d="m472.999 129.026-27.359-1.858-.491 7.212 27.359 1.857.491-7.211z" fill="#363D45"/>
    <path opacity=".1" d="M452.626 209.803s-.24 35.369-9.574 55.677c0 0 11.253-26.764 11.253-27.835 0-1.072 6.218-12.307 4.553-15.652-1.666-3.344-6.232-12.19-6.232-12.19zM453.135 45.885a13.28 13.28 0 0 1 2.165-8.904 10.964 10.964 0 0 0 2.094 7.358 10.99 10.99 0 0 0 6.401 4.202 1.436 1.436 0 0 1-.41-1.572c1.334 1.507 2.355 3.293 3.864 4.618 1.509 1.325 3.772 2.117 5.548 1.175 2.413-1.299 2.439-4.721 1.815-7.384a34.658 34.658 0 0 0-7.994-15.242 10.576 10.576 0 0 0-8.391-4.26c-3.694-.286-7.532.038-10.842 1.694a28.807 28.807 0 0 0-5.204 3.63l-9.106 7.417a8.634 8.634 0 0 0-2.211 2.325 6.35 6.35 0 0 0-.69 2.436 13.117 13.117 0 0 0 6.127 12.385 9.673 9.673 0 0 1 1.519-5.428 9.7 9.7 0 0 1 4.29-3.665 2.52 2.52 0 0 1 .904 1.877l1.919-3.416a3.762 3.762 0 0 1 1.3-1.539c1.184-.65 2.661.117 3.669 1.033 1.008.916 1.99 2.059 3.343 2.201l.052-5.085" fill="#000"/>
    <path d="M453.134 45.17a13.282 13.282 0 0 1 2.166-8.91c-.586 5.195 3.336 10.56 8.501 11.56a1.418 1.418 0 0 1-.41-1.565c1.333 1.506 2.355 3.286 3.864 4.617 1.509 1.332 3.772 2.117 5.548 1.17 2.413-1.3 2.439-4.722 1.814-7.378a34.657 34.657 0 0 0-7.993-15.243 12.798 12.798 0 0 0-4.469-3.468 13.025 13.025 0 0 0-3.902-.792c-3.695-.286-7.532.032-10.843 1.688a29.182 29.182 0 0 0-5.204 3.637l-9.106 7.417a8.543 8.543 0 0 0-2.211 2.325 6.33 6.33 0 0 0-.69 2.435 13.106 13.106 0 0 0 1.301 7.06 13.128 13.128 0 0 0 4.826 5.319 9.687 9.687 0 0 1 1.522-5.427 9.707 9.707 0 0 1 4.287-3.666c.275.232.498.519.653.842.156.324.242.677.251 1.035l1.912-3.403a3.726 3.726 0 0 1 1.301-1.539c1.184-.65 2.66.117 3.669 1.033 1.008.916 1.99 2.052 3.343 2.201l.052-5.091" fill="#363D45"/>
    <path d="M462.202 165.726c-1.672-.844-29.315 3.461-29.315 3.461s-4.553-1.299-15.559-3.104c-11.005-1.805-11.707-12.547-11.707-12.547l-1.204-21.503 3.714-3.247 15.91 10.391s.247 5.254 0 6.202c-.156.649-.573 1.422-.534 1.948a.652.652 0 0 0 .534.585c1.08.272 15.792 2.649 15.792 2.649s34.103-2.331 42.604 9.138a8.621 8.621 0 0 1 1.502 2.832c2.108 7.838-20.222 3.942-21.737 3.195z" fill="#FBBEBE"/>
    <path d="M462.202 165.726c-1.672-.844-29.315 3.461-29.315 3.461s-4.553-1.299-15.559-3.104c-11.005-1.805-11.707-12.547-11.707-12.547l-1.204-21.503 3.714-3.247 15.91 10.391s.247 5.254 0 6.202c-.156.649-.573 1.422-.534 1.948a.652.652 0 0 0 .534.585c1.08.272 15.792 2.649 15.792 2.649s34.103-2.331 42.604 9.138a8.621 8.621 0 0 1 1.502 2.832c2.108 7.838-20.222 3.942-21.737 3.195z" fill="#000" fill-opacity=".2"/>
    <path opacity=".1" d="M483.958 162.576c-1.301.578-2.107.994-2.107.994s-12.202-.358-19.058-2.838c-6.856-2.481-15.188-2.04-15.188-2.04s-28.567-4.909-24.137-11.319a.648.648 0 0 0 .533.584c1.08.273 15.793 2.65 15.793 2.65s34.102-2.332 42.603 9.137a8.635 8.635 0 0 1 1.561 2.832z" fill="#000"/>
    <path d="M495.82 124.74s1.678 11.826 1.795 12.787c.118.961.722 12.541 0 13.859-.722 1.319-1.795 3.462-1.795 3.462s1.197 2.507-3.59 3.468c-4.787.961-10.407 3.819-10.407 3.819s-12.209-.358-19.025-2.865c-6.817-2.506-15.194-2.032-15.194-2.032s-36.262-6.215-20.704-13.801c15.559-7.585 26.564 2.689 26.564 2.689l17.347-1.072s6.465-3.948 8.261-3.585a6.651 6.651 0 0 0 3.707-.597l.124-12.547 12.917-3.585z" fill="#FBBEBE"/>
    <path d="M495.82 124.74s1.678 11.826 1.795 12.787c.118.961.722 12.541 0 13.859-.722 1.319-1.795 3.462-1.795 3.462s1.197 2.507-3.59 3.468c-4.787.961-10.407 3.819-10.407 3.819s-12.209-.358-19.025-2.865c-6.817-2.506-15.194-2.032-15.194-2.032s-36.262-6.215-20.704-13.801c15.559-7.585 26.564 2.689 26.564 2.689l17.347-1.072s6.465-3.948 8.261-3.585a6.651 6.651 0 0 0 3.707-.597l.124-12.547 12.917-3.585z" fill="#000" fill-opacity=".2"/>
    <path opacity=".1" d="m407.858 95.71-3.473-.182-10.524 40.915s11.363-2.871 16.26 0c4.898 2.87 13.881 3.461 13.881 3.461l-3.35-32.615-12.794-11.58z" fill="#000"/>
    <path d="m407.858 94.989-3.473-.182-10.524 40.915s11.363-2.871 16.26 0c4.898 2.87 13.881 3.461 13.881 3.461l-3.35-32.615-12.794-11.58z" fill="#007ACC"/>
    <path opacity=".1" d="m487.45 103.951 4.781 1.078s12.208 17.535 13.165 18.516c.956.98-4.553 4.546-6.824 4.546-2.27 0-13.398 1.299-16.631 4.299-3.233 3-1.886-12.099-1.886-12.443 0-.344 4.013-9.872 4.013-9.872l3.382-6.124z" fill="#000"/>
    <path d="m487.45 103.237 4.781 1.071s12.208 17.568 13.165 18.522c.956.955-4.553 4.546-6.824 4.546-2.27 0-13.398 1.299-16.631 4.3-3.233 3-1.886-12.099-1.886-12.444 0-.344 4.039-9.904 4.039-9.904l3.356-6.091z" fill="#007ACC"/>
    <g opacity=".1" fill="#000">
        <path opacity=".1" d="M455.27 36.318a9.552 9.552 0 0 1 .033-1.493 13.276 13.276 0 0 0-2.003 4.903v1.507-.052.357c0 1.052 0 2.11-.033 3.163h-.091v.487c0-.17 0-.332-.032-.5-1.301-.208-2.231-1.3-3.201-2.17-.969-.87-2.484-1.701-3.668-1.032a3.726 3.726 0 0 0-1.301 1.539l-1.932 3.403a2.5 2.5 0 0 0-.904-1.87 9.692 9.692 0 0 0-4.289 3.664 9.673 9.673 0 0 0-1.519 5.428 13.204 13.204 0 0 1-6.173-10.346 13.137 13.137 0 0 0 6.173 11.774 9.686 9.686 0 0 1 1.521-5.426 9.706 9.706 0 0 1 4.287-3.666 2.543 2.543 0 0 1 .904 1.877l1.913-3.403a3.716 3.716 0 0 1 1.3-1.539c1.184-.65 2.661.117 3.669 1.033 1.008.915 1.99 2.052 3.343 2.201 0-1.662.017-3.32.052-4.974a13.228 13.228 0 0 1 1.951-4.865z"/>
        <path opacity=".1" d="M453.07 42.858c.033-.441.085-.883.15-1.299l.072-1.792a13.135 13.135 0 0 0-.222 3.091zM472.805 50.606c-1.776.948-4.039.156-5.548-1.169-1.509-1.325-2.53-3.11-3.864-4.617a1.44 1.44 0 0 0 .41 1.571c-.13 0-.254-.065-.377-.097 1.301 1.494 2.335 3.247 3.831 4.546 1.496 1.299 3.772 2.117 5.548 1.169 1.776-.948 2.283-3.17 2.127-5.332-.117 1.702-.728 3.176-2.127 3.93zM463.388 46.28a11.056 11.056 0 0 1-5.565-3.558 11.025 11.025 0 0 1-2.539-6.092c-.371 5.098 3.48 10.21 8.52 11.19a1.432 1.432 0 0 1-.416-1.54z"/>
    </g>
    <g filter="url(#a)">
        <rect x="92.036" y="147" width="197.545" height="46.139" rx="4.621" fill="#fff"/>
    </g>
    <ellipse cx="119.761" cy="170.069" rx="13.863" ry="13.842" fill="#CCE4F5"/>
    <rect x="138.245" y="163.148" width="73.935" height="4.614" rx="2.307" fill="#E8E9EA"/>
    <rect x="138.246" y="172.376" width="36.968" height="4.614" rx="2.307" fill="#E8E9EA"/>
    <ellipse cx="268.784" cy="170.069" rx="6.931" ry="6.921" fill="#31A598"/>
    <g filter="url(#b)">
        <rect x="92.036" y="206.98" width="197.545" height="46.139" rx="4.621" fill="#fff"/>
    </g>
    <ellipse cx="119.761" cy="230.05" rx="13.863" ry="13.842" fill="#CCE4F5"/>
    <rect x="138.245" y="223.129" width="73.935" height="4.614" rx="2.307" fill="#E8E9EA"/>
    <rect x="138.246" y="232.357" width="36.968" height="4.614" rx="2.307" fill="#E8E9EA"/>
    <ellipse cx="268.784" cy="230.05" rx="6.931" ry="6.921" fill="#31A598"/>
    <path opacity=".1" d="M350.177 66.84h-18.498v18.471h18.498v-18.47z" fill="#6C63FF"/>
    <path d="m401.417 189.904-1.405 5.974s-11.252-5.747-13.275-13.021c-2.023-7.274 3.389-10.047 3.389-10.047l10.491 4.429.8 12.665z" fill="#fff"/>
    <path opacity=".1" d="m401.417 189.904-1.405 5.974s-11.252-5.747-13.275-13.021c-2.023-7.274 3.389-10.047 3.389-10.047l10.491 4.429.8 12.665z" fill="#000"/>
    <path d="M338.266 393.25s-10.406 3.819-17.561 4.299c-3.799.253-5.796-2.072-6.823-4.312a13.149 13.149 0 0 1-1.08-3.897l.943-10.293.494-5.475 15.201-3.949 2.153 6.579.202.494c.858 2.201 4.332 11.124 4.227 12.988a3.577 3.577 0 0 0 1.061 2.598c.352.371.749.697 1.183.968zM409.321 388.015c.027.315-.004.632-.091.935 0 0-22.258 3.702-26.811 0a12.054 12.054 0 0 0-9.34-2.747s-8.612.234-10.049-2.598c-.598-1.188-.442-3.493-.072-5.76.379-2.132.883-4.24 1.509-6.313l.345-.272 2.049-1.643 23.988-.708h.182c-.117 4.896 8.137 10.514 8.137 10.514 8.787 3.247 10.082 6.917 10.153 8.592z" fill="#fff"/>
    <path opacity=".1" d="M409.328 388.015a2.66 2.66 0 0 1-.098.935s-22.257 3.702-26.804 0a12.059 12.059 0 0 0-9.347-2.747s-8.618.234-10.055-2.598c-.592-1.188-.443-3.493-.072-5.766 3.317.331 8.553 1.155 10.609 3.13 3.109 2.987 8.377 5.975 11.603 6.215 2.55.156 17.712.636 24.164.831zM338.267 393.25s-10.407 3.818-17.562 4.299c-3.798.253-5.795-2.072-6.823-4.312 2.654.889 6.329 1.818 8.261.967 2.289-1.019 10.407-1.669 14.96-1.948.343.38.734.714 1.164.994z" fill="#000"/>
    <path d="M353.709 85.486c-8.586-3.331-19.63-14.34-16.872-19.483.609-1.299.973-2.7 1.073-4.13.177-1.944.203-3.898.078-5.845a80.268 80.268 0 0 0-1.151-9.515s26.804.604 25.243 4.547c-.455 1.162-.533 3.169-.403 5.41.13 2.24.448 4.792.787 6.942.462 2.942.936 5.195.936 5.195s-1.645 2.293-2.601 2.416c-.957.124 5.229 19.237-7.09 14.463z" fill="#FBBEBE"/>
    <path opacity=".1" d="m331.77 376.663-.202.221c-8.013-9.677-17.705 2.39-17.705 2.39l-.143-.26.494-5.475 15.201-3.948 2.153 6.578.202.494zM391.044 369.591s-5.854-.117-8.976 2.636c-3.122 2.754-18.212.591-17.562 0 .19-.3.306-.64.338-.993l2.049-1.643 23.988-.708c.091.454.163.708.163.708z" fill="#000"/>
    <path d="M341.743 293.6a18.083 18.083 0 0 0-.989 3.331 38.063 38.063 0 0 0-.449 9.456c.241 4.546 0 35.011 0 35.011s-5.145 8.125-8.02 10.989c-2.875 2.864 5.854 8.008 5.854 8.008 1.301 7.41-6.582 15.774-6.582 15.774-8.014-9.676-17.705 2.384-17.705 2.384s-5.269-9.092-6.582-12.339c-1.314-3.248 5.144-5.488 7.414-6.813 2.271-1.325-.117-9.092-.117-9.092s-1.912-6.813-4.188-13.028c-2.277-6.215 2.51-37.148 2.51-37.148s.247-5.501.839-7.417c.296-1.383.355-2.805.176-4.208-.039-.474-.085-.864-.117-1.137a4.602 4.602 0 0 0-.059-.389l.091-.156 3.253-6.053s26.232 9.014 24.671 12.827zM391.043 368.876s-5.854-.123-8.976 2.598c-3.122 2.721-18.212.598-17.562 0 .65-.597.592-5.014.592-5.014-8.852-12.073-1.301-16.97-1.301-16.97s-3.948-18.996-4.664-26.042c-.5-4.916-1.118-18.184-1.45-25.698-.143-3.248-.228-5.488-.228-5.488l7.168-1.422.93-.182 17.445-3.501s.481 3.247.806 5.904c.165 1.133.254 2.277.267 3.422-.11 1.299 0 5.371 0 5.371l.599 12.184a14 14 0 0 0-.599 3.942c.124 1.558 2.394 23.776 2.394 23.776s3.948 13.261 2.601 14.216c-1.346.955 1.978 12.904 1.978 12.904z" fill="#363D45"/>
    <path opacity=".1" d="M362.08 51.08c-.455 1.162-.533 3.168-.403 5.409a22.304 22.304 0 0 1-23.689-.442 80.06 80.06 0 0 0-1.151-9.514s26.805.604 25.243 4.546z" fill="#000"/>
    <path d="M372.43 36.74a22.204 22.204 0 0 1-6.329 15.788 22.27 22.27 0 0 1-15.656 6.695 22.272 22.272 0 0 1-15.812-6.319 22.204 22.204 0 0 1-6.706-15.632v-.532a22.207 22.207 0 0 1 6.519-15.715 22.276 22.276 0 0 1 15.739-6.51 22.278 22.278 0 0 1 15.739 6.51 22.207 22.207 0 0 1 6.519 15.715h-.013z" fill="#FBBEBE"/>
    <path opacity=".1" d="M353.709 85.487c-8.586-3.332-19.63-14.34-16.872-19.484.609-1.299.973-2.699 1.073-4.13l11.753 9.65 7.272 5.956 5.529-14.047c.462 2.942.936 5.195.936 5.195s-1.645 2.293-2.601 2.416c-.957.123 5.229 19.217-7.09 14.444z" fill="#000"/>
    <path d="m384.105 128.135-9.815 164.633-12.8.838-33.153-95.461 5.438-113.334 1.151-23.945 14.739 12.086 7.272 5.956 5.691-14.463 10.583 9.209 10.894 54.481z" fill="#31A598"/>
    <path opacity=".1" d="M341.741 293.6a18.157 18.157 0 0 0-.988 3.331 94.394 94.394 0 0 1-26.863-8.371l-.176-.091.059-1.045v-.546l3.252-6.053s26.277 8.963 24.716 12.775zM364.839 296.957a65.831 65.831 0 0 1-7.194.825c-.143-3.247-.228-5.488-.228-5.488l7.207-1.454.215 6.117zM383.831 293.061c-4.625 1.201-11.773 2.552-18.161 1.708l-.091-4.111 17.445-3.501s.462 3.221.807 5.904z" fill="#000"/>
    <path opacity=".1" d="M365.555 295.522c-26.668 4.546-51.091-8.488-51.091-8.488l.234-4.416s.605-50.066-1.073-53.904c-1.679-3.838-2.986-23.276-2.036-26.244.949-2.968-3.467-47.779-3.467-47.779l-.716-18.184-26.206-10.632 11.708-24.373a88.064 88.064 0 0 0 4.072-10.521c2.036-6.332 11.487-12.547 11.487-12.547s9.691-6.209 13.522-5.975c3.831.234 8.853-5.495 8.853-5.495 3.707-9.436 7.063-5.195 7.063-5.195 0 .455 0 0-.182 1.396-1.301 10.359 21.035 43.091 21.354 43.675l2.153 51.735 2.153 65.47 2.172 71.477z" fill="#000"/>
    <path d="M364.836 295.522c-26.667 4.546-51.098-8.488-51.098-8.488l.241-4.416s.598-50.066-1.08-53.904c-1.678-3.838-2.985-23.295-2.029-26.289.956-2.994-3.486-47.76-3.486-47.76l-.722-18.184-26.2-10.632 11.708-24.373a89.533 89.533 0 0 0 4.072-10.515c2.036-6.312 11.519-12.534 11.519-12.534s9.691-6.209 13.516-5.975c3.824.234 8.872-5.487 8.872-5.487 3.714-9.437 7.805-5.196 7.805-5.196 0 .455-.39.65-.182 1.396 2.862 10.047 20.319 43.091 20.638 43.675l2.153 51.735 2.107 65.502 2.166 71.445z" fill="#fff"/>
    <path opacity=".1" d="M357.65 108.301c-2.868-1.195-18.062-18.515-18.062-18.515v-3.942c-.553-1.3-3.844-.507-6.505.402l1.145-23.945 1.301 1.078c2.842 10.04 21.809 44.344 22.121 44.922z" fill="#000"/>
    <path d="M358.373 106.872c-2.874-1.201-18.069-18.515-18.069-18.515v-3.949c-.552-1.299-3.837-.506-6.504.403l1.125-23.919 1.301 1.072c2.869 10.027 21.829 44.324 22.147 44.908z" fill="#fff"/>
    <path opacity=".1" d="M314.463 193.248c.357 0 18.544-1.909 18.544-1.909s11.011 21.626 10.289 26.88c-.721 5.254-2.029 9.917-6.458 9.092-4.43-.825-23.839.65-23.839.65l1.464-34.713z" fill="#000"/>
    <path d="M313.74 191.813c.364 0 18.55-1.909 18.55-1.909s11.006 21.658 10.29 26.854c-.715 5.195-2.036 9.917-6.459 9.092-4.422-.825-23.844.65-23.844.65l1.463-34.687z" fill="#fff"/>
    <path d="M327.444 181.688s16.691 8.962 17.048 11.69c.358 2.728-8.494-1.195-10.407-1.676a24.9 24.9 0 0 0-3.831-.597l-12.755.344 9.945-9.761z" fill="#FBBEBE"/>
    <path opacity=".1" d="M352.99 109.418a1.754 1.754 0 1 0 0-3.507 1.754 1.754 0 1 0 0 3.507z" fill="#000"/>
    <path d="M352.99 108.704a1.755 1.755 0 1 0 0-3.507 1.754 1.754 0 1 0 0 3.507z" fill="#3F3D56"/>
    <path opacity=".1" d="M356.22 185.325a1.755 1.755 0 1 0 0-3.507 1.754 1.754 0 1 0 0 3.507z" fill="#000"/>
    <path d="M356.22 184.604a1.754 1.754 0 1 0 0-3.507 1.755 1.755 0 1 0 0 3.507z" fill="#3F3D56"/>
    <path opacity=".1" d="M354.744 147.372a1.755 1.755 0 1 0 0-3.507 1.754 1.754 0 1 0 0 3.507z" fill="#000"/>
    <path d="M354.744 146.657a1.754 1.754 0 1 0 0-3.507 1.755 1.755 0 1 0 0 3.507z" fill="#3F3D56"/>
    <path d="M395.226 190.741s1.197 1.793 0 2.598c-1.196.805.117 2.871.117 2.871s-2.985 1.74-1.671 3.318c1.314 1.578.481 8.664.481 8.664l-3.59 5.968s.214 3.825.227 8.995c0 8.066-.474 19.405-3.102 24.575l.351 42.415s-12.573 4.591-23.097 3.188l-1.561-68.061s2.277-38.596 3.116-46c.491-3.844.691-7.719.598-11.592 0 0-.358-11.586-1.561-16.957 0 0-1.301-23.302-1.431-29.751-.058-3.085.104-12.086.286-20.646.202-9.358.43-18.184.43-18.184l-2.374-18.762s2.374-.234 3.089.714c.321.299.669.566 1.041.799 4.104 2.766 18.583 11.274 18.583 11.274s8.013 3.182 9.932 7.741c1.919 4.56 3.252 7.794 4.182 9.093.93 1.298 1.438 7.403 1.438 7.403s2.757 11.235 4.91 13.138c2.153 1.903 3.701 13.983 3.701 13.983l-19.025 14.937s-1.671 24.847-2.029 25.809c-.358.961 6.959 22.47 6.959 22.47z" fill="#fff"/>
    <path d="M395.948 190.741s1.191 1.793 0 2.598c-1.19.805.111 2.87.111 2.87s-2.985 1.741-1.672 3.319c1.314 1.578.482 8.664.482 8.664l-3.578 5.968s.215 3.825.234 8.995c0 8.066-.474 19.405-3.102 24.575l.358 42.414s-12.573 4.592-23.097 3.189l-1.555-68.061s2.27-38.596 3.116-46c.491-3.844.689-7.719.592-11.593 0 0-.358-11.586-1.555-16.956 0 0-1.301-23.302-1.437-29.751-.059-3.085.104-12.086.286-20.646.202-9.358.429-18.184.429-18.184l-3.135-19.016s3.135 0 3.857.968c.318.302.666.57 1.041.799 4.098 2.766 18.576 11.274 18.576 11.274s7.994 3.182 9.945 7.741c1.952 4.56 3.253 7.793 4.183 9.092.93 1.3 1.437 7.404 1.437 7.404s2.758 11.235 4.911 13.138c2.153 1.903 3.707 13.983 3.707 13.983l-19.025 14.937s-1.671 24.847-2.036 25.808c-.364.962 6.927 22.471 6.927 22.471z" fill="#fff"/>
    <path opacity=".1" d="m373.164 87.656 1.723 5-9.047 9.092c.201-9.358.429-18.184.429-18.184l-3.135-19.01s3.135 0 3.857.969c.318.302.666.57 1.041.798l7.688 22.14-2.556-.805z" fill="#000"/>
    <path d="m372.429 86.22 1.724 4.995-9.041 9.092c.195-9.359.429-18.185.429-18.185L362.4 63.107s3.141 0 3.857.967c.319.301.667.569 1.04.8l7.734 22.158-2.602-.812z" fill="#fff"/>
    <path opacity=".1" d="M372.43 36.74a22.15 22.15 0 0 1-1.093 6.89.93.93 0 0 1-.703-.169c-.175-5.845-3.05-11.339-6.595-16.008a16.969 16.969 0 0 0-3.577-3.702 7.014 7.014 0 0 0-4.853-1.37c-1.951.266-3.674 1.59-5.645 1.76-2.602.214-4.931-1.585-7.513-1.67a7.37 7.37 0 0 0-5.522 2.56 15.02 15.02 0 0 0-2.959 5.474 32.033 32.033 0 0 0-1.653 9.456c-.032 1.818-.208 4.098-1.899 4.76a9.665 9.665 0 0 0-2.452-7.403l-.039-.046v-.532a22.207 22.207 0 0 1 6.519-15.715 22.276 22.276 0 0 1 15.739-6.51 22.278 22.278 0 0 1 15.739 6.51 22.207 22.207 0 0 1 6.519 15.715h-.013z" fill="#000"/>
    <path d="M359.42 1.455a15.345 15.345 0 0 0-10.81-.844c-1.802.533-3.5 1.396-5.327 1.831-3.903.942-8.456-.077-11.806 2.202-1.86 1.299-2.979 3.351-4.019 5.351l-2.602 4.943c-1.418 2.708-2.849 5.461-3.441 8.442-.592 2.981-.234 6.32 1.659 8.722 1.372 1.74 3.415 2.839 4.911 4.482a9.737 9.737 0 0 1 2.445 7.423c1.691-.65 1.86-2.942 1.899-4.76.074-3.218.63-6.405 1.653-9.457a15.022 15.022 0 0 1 2.959-5.474 7.371 7.371 0 0 1 5.522-2.566c2.602.091 4.937 1.89 7.513 1.67 1.951-.163 3.681-1.488 5.645-1.754a6.983 6.983 0 0 1 4.853 1.37 16.654 16.654 0 0 1 3.571 3.702c3.551 4.676 6.432 10.144 6.602 16.009.734.532 1.795-.17 2.159-1 .364-.832.377-1.806.839-2.598.533-.916 1.555-1.41 2.355-2.098 2.029-1.747 2.536-4.689 2.458-7.358-.078-2.67-.598-5.377-.091-8.001.306-1.604.995-3.117 1.373-4.709.377-1.59.422-3.377-.469-4.747-1.301-2.007-4.039-2.41-6.426-2.598-2.712-.234-5.138.065-6.869-2.214a25.435 25.435 0 0 0-2.731-3.338c-.358-.345-3.825-2.488-3.825-2.63z" fill="#363D45"/>
    <path opacity=".1" d="m288.704 138.409-6.79-12.54-2.153 19.353s1.197 8.599.956 9.917c-.241 1.318 4.904 13.138 4.904 13.138s16.996 30.232 23.936 31.784l23.416-16.73-6.218-7.884s-2.153-.838-2.693 0c0 0-11.552-19.834-12.742-21.263-1.19-1.428-.963-4.305-.963-4.305s-1.795-1.91-1.196-3.702c.598-1.793-3.435-8.001-3.435-8.001l3.708-3.462-20.73 3.695z" fill="#000"/>
    <g opacity=".1" filter="url(#c)">
        <path d="m286.704 139.409-5.203-11.909-3 20.5s.456 6.821.215 8.139c-.24 1.318 4.905 13.138 4.905 13.138s16.872 27.671 23.812 29.223l5.568-15.5 11.753-6.553s-2.153-.838-2.693 0c0 0-11.551-19.834-12.742-21.263-1.19-1.429-.962-4.306-.962-4.306s-1.796-1.909-1.197-3.701c.598-1.793-3.434-8.001-3.434-8.001l3.707-3.462-20.729 3.695z" fill="#000"/>
    </g>
    <path d="m282.272 124.433-1.796 1.436-2.153 19.353s1.197 8.599.957 9.917c-.241 1.318 4.91 13.138 4.91 13.138s16.99 30.232 23.93 31.784l23.455-16.73-6.225-7.884s-2.153-.838-2.693 0c0 0-11.545-19.834-12.742-21.263-1.197-1.428-.956-4.305-.956-4.305s-1.795-1.91-1.197-3.702c.599-1.793-3.473-8.001-3.473-8.001l3.707-3.462-25.724-10.281z" fill="#fff"/>
    <path opacity=".1" d="M393.671 200.275c1.301 1.578.482 8.67.482 8.67l-3.591 5.93s.215 3.831.228 9.001l-6.036 1.883a3.596 3.596 0 0 1-4.309-1.879 3.57 3.57 0 0 1-.348-1.654l1.047-33.511 14.082 5.371c-1.197.831.117 2.87.117 2.87s-2.986 1.741-1.672 3.319z" fill="#000"/>
    <path d="M394.389 199.561c1.301 1.571.481 8.663.481 8.663l-3.577 5.936s.214 3.825.234 8.995l-6.147 1.916a3.512 3.512 0 0 1-4.212-1.832 3.503 3.503 0 0 1-.341-1.617l1.047-33.628 14.076 5.384c-1.204.831.11 2.871.11 2.871s-2.985 1.734-1.671 3.312z" fill="#fff"/>
    <path d="M399.058 183.572s-.956 6.098-3.349 6.455c-2.394.357-3.467 9.865-5.854 9.534-2.387-.331-.807-8.846-.722-10.495.084-1.65-2.602-8.482-.599-10.034 2.004-1.552 8.378 0 8.378 0l2.146 4.54z" fill="#FBBEBE"/>
    <path opacity=".1" d="m404.118 136.617 4.508-9.092s1.801 6.929 1.801 10.631 2.511 4.066 2.511 4.066 2.751 3.247 1.301 5.617c-1.451 2.371-2.03 8.242-2.03 8.242s.475 11.228-1.678 12.781c-2.153 1.552-2.634 5.26-2.634 5.26s-3.948 7.047-3.824 8.722c.123 1.676-5.503 13.021-5.503 13.021s2.751-14.099-13.282-20.191c0 0-.124-4.78 1.073-6.091 1.197-1.312 3.064-1.949 1.893-8.547-1.171-6.598-.338-14.554-.338-16.145 0-1.591 3.59-11.508 3.59-11.508l12.612 3.234z" fill="#000"/>
    <path d="m406.12 126.226 3.942 1.299s1.802 6.929 1.802 10.631 2.51 4.066 2.51 4.066 2.752 3.247 1.301 5.617c-1.45 2.371-2.036 8.242-2.036 8.242s.482 11.228-1.671 12.781c-2.153 1.552-2.602 5.26-2.602 5.26s-3.948 7.046-3.825 8.722c.124 1.676-5.509 13.021-5.509 13.021s2.752-14.099-13.282-20.191c0 0-.117-4.78 1.08-6.092 1.197-1.311 3.064-1.948 1.893-8.546-1.171-6.598-.338-14.554-.338-16.145 0-1.591 3.59-11.508 3.59-11.508l13.145-7.157z" fill="#fff"/>
    <path opacity=".1" d="M319.042 361.888s6.283-3.942 10.407-1.078-10.407 1.078-10.407 1.078zM367.874 349.698s5.561-.714 10.232 4.306c4.67 5.02-10.232-4.306-10.232-4.306z" fill="#000"/>
    <g opacity=".1" fill="#000">
        <path opacity=".1" d="M375.999 35.622c-.8.695-1.828 1.182-2.361 2.098-.455.786-.468 1.76-.833 2.598-.364.838-1.424 1.533-2.166 1-.169-5.845-3.05-11.333-6.595-16.009a16.616 16.616 0 0 0-3.571-3.695 7 7 0 0 0-4.859-1.377c-1.951.267-3.668 1.591-5.639 1.76-2.602.215-4.937-1.584-7.519-1.669a7.35 7.35 0 0 0-5.516 2.559 15.052 15.052 0 0 0-2.959 5.475 32.066 32.066 0 0 0-1.652 9.456c-.039 1.812-.208 4.072-1.886 4.747.039.482.039.966 0 1.448 1.697-.65 1.866-2.942 1.905-4.76.073-3.217.63-6.404 1.652-9.456a15.038 15.038 0 0 1 2.96-5.475 7.363 7.363 0 0 1 5.516-2.565c2.601.09 4.943 1.89 7.519 1.669 1.951-.162 3.681-1.487 5.639-1.753a7 7 0 0 1 4.859 1.37 16.674 16.674 0 0 1 3.571 3.702c3.544 4.676 6.426 10.144 6.595 16.008.741.533 1.802-.169 2.166-1 .364-.831.377-1.805.832-2.598.534-.915 1.561-1.409 2.362-2.097 2.029-1.747 2.536-4.69 2.458-7.358v-.247c-.13 2.325-.748 4.682-2.478 6.17zM327.977 35.168c-1.49-1.643-3.532-2.747-4.905-4.488a9.414 9.414 0 0 1-1.892-5.312 10 10 0 0 0 1.892 6.747c1.373 1.741 3.415 2.838 4.905 4.482a9.736 9.736 0 0 1 2.458 5.793 9.734 9.734 0 0 0-2.458-7.222zM379.736 15.555c-.383 1.59-1.066 3.104-1.378 4.708a14.95 14.95 0 0 0-.202 3.286c.021-.62.089-1.24.202-1.85.312-1.605.995-3.118 1.378-4.709a8.142 8.142 0 0 0 .215-2.689 9.017 9.017 0 0 1-.215 1.254z"/>
    </g>
    <defs>
        <filter id="a" x="82.794" y="142.379" width="216.029" height="64.623" filterUnits="userSpaceOnUse" color-interpolation-filters="sRGB">
            <feFlood flood-opacity="0" result="BackgroundImageFix"/>
            <feColorMatrix in="SourceAlpha" values="0 0 0 0 0 0 0 0 0 0 0 0 0 0 0 0 0 0 127 0" result="hardAlpha"/>
            <feOffset dy="4.621"/>
            <feGaussianBlur stdDeviation="4.621"/>
            <feColorMatrix values="0 0 0 0 0.186042 0 0 0 0 0.187021 0 0 0 0 0.195833 0 0 0 0.12 0"/>
            <feBlend in2="BackgroundImageFix" result="effect1_dropShadow"/>
            <feBlend in="SourceGraphic" in2="effect1_dropShadow" result="shape"/>
        </filter>
        <filter id="b" x="82.794" y="202.359" width="216.029" height="64.623" filterUnits="userSpaceOnUse" color-interpolation-filters="sRGB">
            <feFlood flood-opacity="0" result="BackgroundImageFix"/>
            <feColorMatrix in="SourceAlpha" values="0 0 0 0 0 0 0 0 0 0 0 0 0 0 0 0 0 0 127 0" result="hardAlpha"/>
            <feOffset dy="4.621"/>
            <feGaussianBlur stdDeviation="4.621"/>
            <feColorMatrix values="0 0 0 0 0.186042 0 0 0 0 0.187021 0 0 0 0 0.195833 0 0 0 0.12 0"/>
            <feBlend in2="BackgroundImageFix" result="effect1_dropShadow"/>
            <feBlend in="SourceGraphic" in2="effect1_dropShadow" result="shape"/>
        </filter>
        <filter id="c" x="274.501" y="123.5" width="54.253" height="79" filterUnits="userSpaceOnUse" color-interpolation-filters="sRGB">
            <feFlood flood-opacity="0" result="BackgroundImageFix"/>
            <feBlend in="SourceGraphic" in2="BackgroundImageFix" result="shape"/>
            <feGaussianBlur stdDeviation="2" result="effect1_foregroundBlur"/>
        </filter>
    </defs>
</svg>
